<?xml version="1.0" encoding="UTF-8"?>
<svg version="1.1" xmlns="http://www.w3.org/2000/svg" width="1280" height="220">
<path d="M0 0 C2.9277629 2.17603999 5.31356978 4.55789764 7.734375 7.2890625 C8.724375 4.6490625 9.714375 2.0090625 10.734375 -0.7109375 C19.644375 -0.7109375 28.554375 -0.7109375 37.734375 -0.7109375 C37.09880442 6.2803389 36.39615744 13.0536001 35.23144531 19.94458008 C35.00918777 21.28851082 35.00918777 21.28851082 34.78244019 22.65959167 C34.29709374 25.58505379 33.80539175 28.50939402 33.3125 31.43359375 C33.14313683 32.44309271 32.97377365 33.45259167 32.79927826 34.4926815 C31.90332102 39.83289852 31.00258081 45.17228179 30.09765625 50.51098633 C29.17056918 55.98571259 28.2592474 61.46293803 27.35164261 66.94092274 C26.64472692 71.19010334 25.92625027 75.43727268 25.2047348 79.6839962 C24.86406184 81.70082463 24.52757438 83.71836522 24.19559479 85.73664284 C20.9451641 105.44892428 17.13995204 121.41425095 0.734375 134.2890625 C-2.63074798 136.53247782 -3.84155977 136.56118074 -7.78759766 136.62719727 C-8.91952545 136.64964005 -10.05145325 136.67208282 -11.21768188 136.69520569 C-12.44264374 136.7068425 -13.66760559 136.71847931 -14.9296875 136.73046875 C-16.1914682 136.74424057 -17.4532489 136.75801239 -18.75326538 136.77220154 C-21.42826902 136.79550203 -24.10280152 136.81340826 -26.77783203 136.82446289 C-30.18452048 136.84094915 -33.58910998 136.89927394 -36.99509621 136.96760654 C-40.26477081 137.02351135 -43.53460519 137.02965313 -46.8046875 137.04296875 C-48.01750397 137.07282364 -49.23032043 137.10267853 -50.47988892 137.13343811 C-57.73274972 137.09608691 -61.99850849 136.0044009 -67.57479858 131.28208923 C-69.265625 129.2890625 -69.265625 129.2890625 -71.265625 124.2890625 C-66.975625 119.3390625 -62.685625 114.3890625 -58.265625 109.2890625 C-52.709375 110.4003125 -52.709375 110.4003125 -49.890625 113.1640625 C-43.8970611 118.50308302 -38.26740099 119.91591293 -30.33984375 119.70703125 C-24.16171878 118.86705746 -19.21272364 116.23616114 -14.828125 111.8515625 C-11.37446182 106.44072739 -11.37446182 106.44072739 -10.265625 100.2890625 C-10.79929687 100.57201172 -11.33296875 100.85496094 -11.8828125 101.14648438 C-17.83224166 104.07487987 -22.67769436 104.91068583 -29.265625 104.7890625 C-30.10351562 104.80453125 -30.94140625 104.82 -31.8046875 104.8359375 C-40.3566533 104.78298415 -47.44225842 101.79556765 -53.70703125 95.96484375 C-61.55736043 87.52426426 -64.77842049 75.62186307 -65.265625 64.2890625 C-65.30558594 63.60972656 -65.34554687 62.93039063 -65.38671875 62.23046875 C-65.96595241 43.66091894 -60.05069983 24.21524258 -48.015625 9.9765625 C-36.70363435 -2.00195959 -15.38434529 -8.55369598 0 0 Z M-28.265625 30.2890625 C-30.3185879 34.17348441 -31.86103584 38.13016178 -33.265625 42.2890625 C-33.513125 43.01867187 -33.760625 43.74828125 -34.015625 44.5 C-36.62079831 53.94375325 -37.02540222 66.59015931 -32.265625 75.2890625 C-28.54973115 79.65523778 -26.3250174 81.11453772 -20.578125 81.6015625 C-14.86328413 81.52789052 -10.64589444 79.06432839 -6.16015625 75.71875 C-3.38467782 72.15927045 -2.95328044 68.5493947 -2.203125 64.1640625 C-2.04102539 63.28476074 -1.87892578 62.40545898 -1.71191406 61.49951172 C-1.21336842 58.76534639 -0.73827964 56.02780899 -0.265625 53.2890625 C0.03989071 51.58585243 0.3458634 49.88272425 0.65234375 48.1796875 C0.93139384 46.59144469 1.20881219 45.00291407 1.484375 43.4140625 C1.61207275 42.68429199 1.73977051 41.95452148 1.87133789 41.20263672 C3.2401297 33.43329703 3.2401297 33.43329703 1.109375 26.1015625 C-1.90969085 22.52635294 -4.5156551 20.68505817 -9.21875 20.0078125 C-17.49111773 19.62892543 -23.41200599 23.85915134 -28.265625 30.2890625 Z " fill="#FEFEFE" transform="translate(783.265625,83.7109375)"/>
<path d="M0 0 C1.20970459 0.00523682 2.41940918 0.01047363 3.66577148 0.01586914 C4.97094727 0.0190918 6.27612305 0.02231445 7.62084961 0.02563477 C9.00952213 0.03399138 10.39819401 0.04245634 11.78686523 0.05102539 C13.17944179 0.05603873 14.57202005 0.06060193 15.96459961 0.06469727 C19.38456602 0.07653106 22.80443753 0.0938533 26.22436523 0.11352539 C24.68415012 14.60854663 22.11398001 28.92853929 19.61206889 43.28202844 C19.00151218 46.78884748 18.39491069 50.29635101 17.78773499 53.80375671 C16.77074643 59.67496129 15.75082471 65.54565024 14.72900391 71.41601562 C13.54833075 78.19915599 12.37200407 84.98303915 11.19801897 91.76734 C10.06401378 98.32020949 8.92736582 104.87261767 7.78936958 111.42479515 C7.30654049 114.20489156 6.82456856 116.98513455 6.34327507 119.76549721 C5.67349309 123.63369552 4.99980856 127.50120841 4.32568359 131.36865234 C4.12670471 132.52027359 3.92772583 133.67189484 3.72271729 134.8584137 C3.53912155 135.9080127 3.35552582 136.95761169 3.16636658 138.03901672 C3.00765044 138.95201192 2.84893431 139.86500711 2.68540859 140.80566883 C2.22436523 143.11352539 2.22436523 143.11352539 1.22436523 146.11352539 C-7.68563477 146.11352539 -16.59563477 146.11352539 -25.77563477 146.11352539 C-26.10563477 144.79352539 -26.43563477 143.47352539 -26.77563477 142.11352539 C-27.64188477 142.73227539 -28.50813477 143.35102539 -29.40063477 143.98852539 C-38.33756342 149.61548047 -49.72484134 149.50954715 -59.89282227 147.49633789 C-67.89151642 144.6805982 -73.50345255 138.85725757 -77.58813477 131.55102539 C-85.97243576 113.08290293 -83.85590023 91.50078257 -77.15063477 72.86352539 C-72.2303891 60.14627123 -64.61550803 49.29704167 -51.98461914 43.25708008 C-46.77864343 41.07367832 -42.01325066 40.57052984 -36.40063477 40.61352539 C-35.56717529 40.61707031 -34.73371582 40.62061523 -33.875 40.62426758 C-24.88312216 40.86646122 -18.97828694 43.61947345 -12.77563477 50.11352539 C-10.85314924 40.88774289 -9.01516471 31.65434682 -7.43188477 22.36352539 C-7.31991257 21.70656174 -7.20794037 21.04959808 -7.09257507 20.37272644 C-6.53410528 17.0834552 -5.98344044 13.79309523 -5.43896484 10.50146484 C-5.23682373 9.29707764 -5.03468262 8.09269043 -4.82641602 6.85180664 C-4.64763916 5.76939697 -4.4688623 4.6869873 -4.28466797 3.57177734 C-3.57348135 0.13727469 -3.56632607 0.14586521 0 0 Z M-45.34594727 72.19946289 C-51.11180873 82.0394061 -52.97043813 92.1820731 -53.08813477 103.42602539 C-53.11713867 104.33803711 -53.14614258 105.25004883 -53.17602539 106.18969727 C-53.23352509 112.35985725 -52.30590785 116.97167545 -48.77563477 122.11352539 C-45.17810271 125.40269756 -41.67243094 125.58127888 -36.97875977 125.39477539 C-30.90906118 124.61992025 -26.42454179 120.80784862 -22.77563477 116.11352539 C-21.85593646 113.38158765 -21.28657648 111.20104077 -20.87719727 108.40649414 C-20.69016739 107.31924797 -20.69016739 107.31924797 -20.49935913 106.21003723 C-20.24147388 104.68485682 -19.99501925 103.15770345 -19.75952148 101.62890625 C-19.40259025 99.3137094 -19.01242562 97.0061482 -18.61547852 94.69750977 C-15.95967402 81.97455291 -15.95967402 81.97455291 -18.46313477 69.73852539 C-21.98753844 65.73785095 -24.69830111 63.96794715 -30.02563477 63.55102539 C-36.49410094 63.80976404 -41.49483335 67.08380411 -45.34594727 72.19946289 Z " fill="#F41000" transform="translate(1060.775634765625,39.886474609375)"/>
<path d="M0 0 C13.95344072 -0.37712002 26.58158453 2.73904245 37.3203125 11.859375 C45.46079933 19.78095799 49.44355597 29.11621735 51.64453125 40.12109375 C51.64453125 43.75109375 51.64453125 47.38109375 51.64453125 51.12109375 C41.74453125 51.12109375 31.84453125 51.12109375 21.64453125 51.12109375 C20.98453125 46.83109375 20.32453125 42.54109375 19.64453125 38.12109375 C17.92255456 33.28631305 16.65142506 30.32700681 12.26953125 27.62109375 C5.83582198 24.92230934 -2.29783263 24.78519509 -8.89453125 26.95703125 C-11.24677156 28.08552462 -11.24677156 28.08552462 -14.35546875 30.12109375 C-15.04382813 30.41242188 -15.7321875 30.70375 -16.44140625 31.00390625 C-18.82543021 32.39539779 -19.27896206 33.62021359 -20.35546875 36.12109375 C-21.11859375 37.19359375 -21.88171875 38.26609375 -22.66796875 39.37109375 C-31.92210388 54.19408896 -33.57042894 74.22852678 -33.73046875 91.24609375 C-33.74440674 92.19363525 -33.75834473 93.14117676 -33.77270508 94.11743164 C-33.72112935 101.69370578 -32.17525852 108.51489584 -28.35546875 115.12109375 C-25.94594852 116.36823778 -25.94594852 116.36823778 -23.35546875 117.12109375 C-22.36546875 117.45109375 -21.37546875 117.78109375 -20.35546875 118.12109375 C-10.98200089 118.97962459 -3.88735786 117.84731369 3.45703125 111.80859375 C7.96657261 106.26830008 10.11576686 100.86446545 12.64453125 94.12109375 C22.54453125 94.12109375 32.44453125 94.12109375 42.64453125 94.12109375 C41.26953445 106.49606493 38.05197665 115.8783514 29.64453125 125.12109375 C28.82662109 126.05888672 28.82662109 126.05888672 27.9921875 127.015625 C19.17208432 136.54133643 6.11026787 142.3719173 -6.828125 143.2980957 C-24.0303438 143.70512407 -38.01805604 143.4539257 -51.35546875 131.12109375 C-63.40690579 117.76864931 -66.24588799 99.84070838 -65.5078125 82.48486328 C-63.8769982 57.18110683 -56.61084936 32.04172644 -37.48046875 14.37109375 C-26.40047281 5.2096185 -14.26114165 0.73315985 0 0 Z " fill="#0388FE" transform="translate(244.35546875,44.87890625)"/>
<path d="M0 0 C7.25083098 6.05746505 10.13441359 13.47737117 11.40625 22.63549805 C11.8109124 29.55314759 10.58793349 36.20673507 9.4375 43 C9.19705504 44.51361233 8.9585446 46.02753318 8.72192383 47.54174805 C7.73303169 53.82071215 6.67486618 60.08778415 5.6171875 66.35546875 C3.803195 77.18591673 2.62708527 87.46703007 4.625 98.375 C0.14902303 100.61298849 -5.89737199 99.6945757 -10.8125 99.75 C-12.06611328 99.78738281 -13.31972656 99.82476562 -14.61132812 99.86328125 C-15.81080078 99.87488281 -17.01027344 99.88648438 -18.24609375 99.8984375 C-19.34880615 99.91825684 -20.45151855 99.93807617 -21.58764648 99.95849609 C-24.375 99.375 -24.375 99.375 -26.25805664 96.84228516 C-26.62664795 96.02808105 -26.99523926 95.21387695 -27.375 94.375 C-28.30119141 94.88160156 -28.30119141 94.88160156 -29.24609375 95.3984375 C-40.22903012 101.18244965 -49.88461404 102.83448031 -62.1484375 99.65625 C-69.80165862 96.92463877 -76.05664115 92.44825167 -79.8125 85.125 C-83.35576152 77.18046744 -83.74063387 67.88025045 -81.25 59.5 C-77.75733627 50.74397326 -71.3647215 44.31664029 -62.95703125 40.1875 C-48.82131825 34.22639312 -34.44636736 34.22867605 -19.375 34.375 C-19.29339252 32.47989301 -19.23553541 30.58375496 -19.1875 28.6875 C-19.15269531 27.63175781 -19.11789062 26.57601562 -19.08203125 25.48828125 C-19.4115818 21.98625745 -20.32346488 20.19586078 -22.375 17.375 C-25.09750216 15.15666491 -26.66562698 15.37968753 -30.25 15.4375 C-34.9160354 16.18615493 -37.16158874 17.93205936 -40.375 21.375 C-41.035 23.355 -41.695 25.335 -42.375 27.375 C-52.275 27.375 -62.175 27.375 -72.375 27.375 C-71.3022258 16.64725797 -69.39686436 10.89115501 -61.6875 3.5625 C-45.44507601 -9.58022475 -17.46629019 -11.49183953 0 0 Z M-48.9375 60 C-51.83851756 63.76392647 -52.8051784 66.43359614 -52.70703125 71.33203125 C-52.46666782 73.67271963 -52.46666782 73.67271963 -50.4375 76.375 C-46.25917732 79.10370052 -43.22970447 79.2355329 -38.375 78.375 C-33.27429847 76.79841953 -28.92939747 73.94278927 -25.5625 69.7890625 C-22.95232968 64.482861 -22.81014242 58.20440794 -22.375 52.375 C-32.52712183 51.802153 -41.80656381 51.90588049 -48.9375 60 Z " fill="#FEFEFE" transform="translate(697.375,87.625)"/>
<path d="M0 0 C1.38264038 0.00241699 1.38264038 0.00241699 2.79321289 0.00488281 C9.69063808 0.12910588 15.48404517 1.05681052 21.625 4.375 C22.6975 4.9525 23.77 5.53 24.875 6.125 C31.81958015 11.80692921 37.04857425 18.06504984 38.04101562 27.20727539 C38.05903014 28.60812363 38.0545815 30.00938648 38.03125 31.41015625 C38.02420044 32.18255142 38.01715088 32.95494659 38.0098877 33.75074768 C37.73579956 44.86751721 35.53942174 55.78094416 33.61572266 66.7043457 C31.34434497 79.73993453 30.14066185 92.13738501 30.625 105.375 C27.91098706 106.73200647 25.77653684 106.4873861 22.7421875 106.47265625 C20.99228516 106.46782227 20.99228516 106.46782227 19.20703125 106.46289062 C17.98371094 106.45451172 16.76039063 106.44613281 15.5 106.4375 C14.26894531 106.43298828 13.03789062 106.42847656 11.76953125 106.42382812 C8.72130608 106.4120133 5.67317686 106.39554028 2.625 106.375 C1.965 104.725 1.305 103.075 0.625 101.375 C-1.73004399 102.28662993 -4.0436793 103.20393033 -6.2890625 104.36328125 C-15.55152029 108.99451015 -25.52421939 109.52724979 -35.375 106.375 C-43.94543557 103.17880749 -50.40896375 98.18958994 -54.3125 89.75 C-57.05291409 81.12024881 -56.51591558 70.4536919 -52.375 62.375 C-46.30399662 52.14318434 -37.30286753 46.88502336 -26.0546875 43.72265625 C-14.88043564 41.05563098 -3.77948848 41.26427681 7.625 41.375 C7.70660748 39.47989301 7.76446459 37.58375496 7.8125 35.6875 C7.84730469 34.63175781 7.88210938 33.57601562 7.91796875 32.48828125 C7.58563055 28.95663401 6.74178496 27.19244571 4.625 24.375 C0.88561145 21.8820743 -0.79247556 22.17250471 -5.08984375 22.7734375 C-8.93995496 23.78697105 -10.6497756 25.45511671 -13.375 28.375 C-14.365 30.355 -15.355 32.335 -16.375 34.375 C-25.945 34.375 -35.515 34.375 -45.375 34.375 C-44.35491644 24.17416438 -42.67090979 18.10938568 -35.25 11.125 C-24.66763577 2.88386679 -13.14392183 -0.02400059 0 0 Z M-21.3125 65.875 C-24.74823332 70.03952524 -25.93038712 72.80863287 -25.7421875 78.40234375 C-25.44751234 80.67923068 -25.44751234 80.67923068 -23.4375 83.375 C-19.25917732 86.10370052 -16.22970447 86.2355329 -11.375 85.375 C-5.35448327 83.51411301 -0.46033457 79.91642327 2.625 74.375 C4.09836349 69.37406431 4.625 64.57651071 4.625 59.375 C-5.6824565 58.84716439 -13.27211528 59.03211938 -21.3125 65.875 Z " fill="#0388FE" transform="translate(350.375,80.625)"/>
<path d="M0 0 C9.9 0 19.8 0 30 0 C28.49293126 13.09308584 26.36311509 26.0210328 24.0859375 39 C23.70732029 41.17425871 23.3290405 43.3485762 22.95108032 45.52294922 C21.96477633 51.19179116 20.97395002 56.8598332 19.9821167 62.52770996 C18.78799048 69.3572908 17.59959503 76.18787097 16.41021729 83.01828003 C14.6111542 93.346284 12.80490473 103.67300765 11 114 C29.81 114.33 48.62 114.66 68 115 C66.86153846 127.52307692 66.86153846 127.52307692 66 132.625 C65.835 133.62789062 65.67 134.63078125 65.5 135.6640625 C65 138 65 138 64 139 C61.2611158 139.09516211 58.54752059 139.12554594 55.80834961 139.11352539 C54.94988937 139.11367142 54.09142914 139.11381744 53.20695496 139.1139679 C50.35539262 139.11326847 47.50389475 139.1054747 44.65234375 139.09765625 C42.68079158 139.09579218 40.70923895 139.09436822 38.73768616 139.09336853 C33.53773733 139.08954251 28.33781625 139.07971152 23.13787842 139.06866455 C17.83606339 139.05845222 12.5342439 139.05387129 7.23242188 139.04882812 C-3.17839763 139.03808933 -13.58919651 139.02101191 -24 139 C-23.44372007 130.7744275 -22.41719395 122.74263873 -20.99047852 114.62548828 C-20.78872009 113.45319168 -20.58696167 112.28089508 -20.37908936 111.07307434 C-19.71757896 107.23789671 -19.04849948 103.40408651 -18.37890625 99.5703125 C-17.91348965 96.88912777 -17.44937032 94.20771873 -16.98509216 91.52633667 C-16.01454356 85.92608404 -15.03968477 80.32659467 -14.06225586 74.72753906 C-12.93440134 68.26644779 -11.81369013 61.80414767 -10.69669205 55.34117138 C-9.61761528 49.09870995 -8.53328057 42.85717254 -7.44663811 36.61602402 C-6.98600495 33.96975183 -6.52723923 31.32316612 -6.07000923 28.67630386 C-5.43083513 24.98277867 -4.78568309 21.29034663 -4.13891602 17.59814453 C-3.85751015 15.96162178 -3.85751015 15.96162178 -3.57041931 14.29203796 C-3.39241791 13.28301926 -3.2144165 12.27400055 -3.03102112 11.23440552 C-2.80344289 9.92763698 -2.80344289 9.92763698 -2.57126713 8.59446907 C-1.92824931 5.67413678 -0.94561158 2.83683474 0 0 Z " fill="#FEFEFE" transform="translate(538,47)"/>
<path d="M0 0 C0.495 0.495 0.495 0.495 1 1 C0.82938719 10.08185086 -0.47067487 19.06161432 -2 28 C-3.59328125 27.94779297 -3.59328125 27.94779297 -5.21875 27.89453125 C-14.28319624 27.6845027 -20.93472294 27.73571034 -28.8125 32.8125 C-33.60229084 37.60229084 -34.68624031 43.31194481 -35.75390625 49.73828125 C-35.90029037 50.57731491 -36.0466745 51.41634857 -36.19749451 52.2808075 C-36.50521326 54.05597987 -36.80835087 55.83195175 -37.10717773 57.60864258 C-37.55496264 60.26774063 -38.01735906 62.92395379 -38.48242188 65.58007812 C-40.13480506 75.13990484 -41.51960431 84.6709053 -42.48803711 94.32495117 C-43 98 -43 98 -45 105 C-54.57 105 -64.14 105 -74 105 C-72.57728782 92.80361733 -70.67915913 80.75271876 -68.55859375 68.66015625 C-68.22732587 66.75731643 -67.8962804 64.85443788 -67.56544495 62.95152283 C-66.87791267 59.00215361 -66.18764195 55.05327589 -65.49536133 51.10473633 C-64.60672002 46.03481572 -63.7252562 40.96367669 -62.84577847 35.89215946 C-62.16666626 31.98076843 -61.4837819 28.07004341 -60.7997303 24.15951347 C-60.47279309 22.28773107 -60.14705871 20.41573817 -59.82253838 18.54353523 C-59.37179293 15.94638101 -58.91597335 13.35016913 -58.45874023 10.75415039 C-58.32521652 9.97871887 -58.19169281 9.20328735 -58.05412292 8.40435791 C-57.11426601 3.11426601 -57.11426601 3.11426601 -56 2 C-54.07332493 1.91251793 -52.14348139 1.89302666 -50.21484375 1.90234375 C-49.04501953 1.90556641 -47.87519531 1.90878906 -46.66992188 1.91210938 C-45.43822266 1.92048828 -44.20652344 1.92886719 -42.9375 1.9375 C-41.08415039 1.94426758 -41.08415039 1.94426758 -39.19335938 1.95117188 C-36.12885883 1.96300392 -33.06445279 1.97948827 -30 2 C-29.505 3.98 -29.505 3.98 -29 6 C-28.52691406 5.66226563 -28.05382812 5.32453125 -27.56640625 4.9765625 C-18.6232625 -1.05526545 -10.59322211 -1.70248213 0 0 Z " fill="#0389FE" transform="translate(469,81)"/>
<path d="M0 0 C9.57 0 19.14 0 29 0 C29 7.87507316 29 7.87507316 28.39930725 11.30754089 C28.26612595 12.08548508 28.13294464 12.86342926 27.99572754 13.66494751 C27.77366638 14.90817276 27.77366638 14.90817276 27.54711914 16.17651367 C27.3926683 17.06843918 27.23821747 17.96036469 27.0790863 18.87931824 C26.57012168 21.8098906 26.05275698 24.73891045 25.53515625 27.66796875 C25.17835373 29.71096155 24.82203255 31.75403847 24.46617126 33.79719543 C23.72067927 38.07042733 22.97138225 42.34296722 22.21899414 46.61499023 C21.25443086 52.09185492 20.29627032 57.56981351 19.34055424 63.04822826 C18.42834094 68.2760072 17.51320083 73.50327235 16.59765625 78.73046875 C16.42315508 79.72790792 16.24865391 80.7253471 16.06886482 81.7530117 C15.5749357 84.57284861 15.0789569 87.39231668 14.58227539 90.21166992 C14.43625885 91.04655945 14.29024231 91.88144897 14.13980103 92.74163818 C13.52847495 96.20047763 12.85241912 99.5903235 12 103 C2.43 103 -7.14 103 -17 103 C-16.37798895 96.15787847 -15.71166162 89.57148119 -14.52539062 82.84423828 C-14.38054733 82.00210281 -14.23570404 81.15996735 -14.08647156 80.29231262 C-13.61389314 77.55090739 -13.13516376 74.8106174 -12.65625 72.0703125 C-12.32340819 70.14751356 -11.9909356 68.22465067 -11.65881348 66.30172729 C-10.78851399 61.26921362 -9.91287875 56.23764244 -9.03619385 51.20623779 C-8.32074369 47.09490369 -7.60906787 42.9829205 -6.89759064 38.87089729 C-5.42719128 30.37304946 -3.95439344 21.87561348 -2.47460938 13.37939453 C-2.33951462 12.60113815 -2.20441986 11.82288177 -2.06523132 11.02104187 C-1.42225123 7.33566815 -0.73381413 3.66907066 0 0 Z " fill="#F41000" transform="translate(944,83)"/>
<path d="M0 0 C9.57 0 19.14 0 29 0 C29 7.87507316 29 7.87507316 28.39930725 11.30754089 C28.26612595 12.08548508 28.13294464 12.86342926 27.99572754 13.66494751 C27.77366638 14.90817276 27.77366638 14.90817276 27.54711914 16.17651367 C27.3926683 17.06843918 27.23821747 17.96036469 27.0790863 18.87931824 C26.57012168 21.8098906 26.05275698 24.73891045 25.53515625 27.66796875 C25.17835373 29.71096155 24.82203255 31.75403847 24.46617126 33.79719543 C23.72067927 38.07042733 22.97138225 42.34296722 22.21899414 46.61499023 C21.25443086 52.09185492 20.29627032 57.56981351 19.34055424 63.04822826 C18.42834094 68.2760072 17.51320083 73.50327235 16.59765625 78.73046875 C16.42315508 79.72790792 16.24865391 80.7253471 16.06886482 81.7530117 C15.5749357 84.57284861 15.0789569 87.39231668 14.58227539 90.21166992 C14.43625885 91.04655945 14.29024231 91.88144897 14.13980103 92.74163818 C13.52847495 96.20047763 12.85241912 99.5903235 12 103 C2.43 103 -7.14 103 -17 103 C-16.41161889 96.52780777 -15.84795124 90.47021958 -14.74072266 84.13623047 C-14.61859909 83.43041336 -14.49647552 82.72459625 -14.37065125 81.99739075 C-13.97264335 79.70323747 -13.56842764 77.41022798 -13.1640625 75.1171875 C-12.88083374 73.49218277 -12.59799438 71.86711013 -12.31552124 70.24197388 C-11.57423701 65.98343791 -10.82764016 61.72585041 -10.07989502 57.46844482 C-9.3286176 53.18526638 -8.58253333 48.90118398 -7.8359375 44.6171875 C-5.24164346 29.74166329 -2.62640771 14.86988591 0 0 Z " fill="#0388FE" transform="translate(482,83)"/>
<path d="M0 0 C9.24 0 18.48 0 28 0 C26.85138644 14.93197623 26.85138644 14.93197623 25.6171875 21.76855469 C25.48209778 22.54603561 25.34700806 23.32351654 25.20782471 24.1245575 C24.76918431 26.64135403 24.32208635 29.15656652 23.875 31.671875 C23.5643257 33.44766664 23.25427891 35.22356817 22.94482422 36.99957275 C22.13501725 41.63949685 21.31839262 46.27819153 20.49975586 50.91656494 C19.18836501 58.35167701 17.88602229 65.78837095 16.58648682 73.22556305 C16.13443176 75.80554575 15.67853837 78.38482793 15.22216797 80.96405029 C14.94226327 82.55902037 14.6624722 84.15401039 14.3828125 85.74902344 C14.25706848 86.45365219 14.13132446 87.15828094 14.00177002 87.88426208 C13.12185159 92.93031955 12.56857828 97.88279549 12 103 C2.1 103 -7.8 103 -18 103 C-14.37058086 80.14446866 -10.53837179 57.33125102 -6.56363297 34.53386307 C-6.18688607 32.37147628 -5.81103752 30.20893497 -5.43539429 28.0463562 C-4.72440737 23.9548281 -4.00905352 19.86407654 -3.29296875 15.7734375 C-3.0765271 14.52811752 -2.86008545 13.28279755 -2.63708496 11.9997406 C-2.43611206 10.85691116 -2.23513916 9.71408173 -2.02807617 8.53662109 C-1.85298019 7.53569427 -1.67788422 6.53476746 -1.4974823 5.50350952 C-1 3 -1 3 0 0 Z " fill="#FEFEFE" transform="translate(841,83)"/>
<path d="M0 0 C3.86474354 2.45938225 6.28441109 4.35323328 7.75 8.75 C8.25704484 14.04487804 8.39847741 18.40500981 6.0625 23.25 C1.86705594 27.7856152 -1.8296009 29.33307611 -7.91015625 29.80859375 C-13.39109535 29.67134152 -17.05156811 27.72372591 -21.25 24.3125 C-24.6044202 19.77550454 -24.01863039 14.07917071 -23.25 8.75 C-21.13339465 3.81125418 -18.18368466 1.56719449 -13.3984375 -0.55859375 C-8.63858755 -2.09040001 -4.71043592 -1.81170612 0 0 Z " fill="#000000" transform="translate(898.25,158.25)"/>
<path d="M0 0 C3.01865537 1.70465245 5.16971349 3.03586385 6.6875 6.25 C7.8773155 11.83298045 8.06364561 15.90367238 5.6875 21.25 C3.03022462 24.7718814 0.318657 26.82125242 -3.97265625 27.94921875 C-9.95791333 28.71487062 -14.16601501 28.44082069 -19.3125 25.25 C-23.5972212 21.33786325 -25.12185846 18.08622697 -25.4453125 12.42578125 C-25.16288371 7.79893318 -23.21630446 5.10623581 -19.9375 2 C-13.46398117 -2.31567922 -7.127787 -3.32804761 0 0 Z " fill="#0388FE" transform="translate(510.3125,43.75)"/>
<path d="M0 0 C3.01865537 1.70465245 5.16971349 3.03586385 6.6875 6.25 C7.8773155 11.83298045 8.06364561 15.90367238 5.6875 21.25 C3.0406431 24.75807303 0.31360749 26.79507707 -3.9375 27.984375 C-10.36107027 28.87653754 -15.06519235 28.12360211 -20.3125 24.25 C-24.18397442 20.77559988 -25.06730163 17.49504684 -25.41015625 12.4609375 C-25.20485006 7.81280544 -23.22137014 5.11103487 -19.9375 2 C-13.46398117 -2.31567922 -7.127787 -3.32804761 0 0 Z " fill="#F30F00" transform="translate(972.3125,43.75)"/>
<path d="M0 0 C3.03105693 1.71759893 5.19529232 3.00225387 6.6875 6.25 C8.1882785 12.32401693 7.97080797 16.74251566 4.6875 22.25 C1.87937984 25.27774967 -1.08132138 27.8653474 -5.3125 28.25 C-6.385 28.353125 -7.4575 28.45625 -8.5625 28.5625 C-14.59448173 28.05983486 -18.64603028 25.99979321 -22.8125 21.625 C-24.8539163 17.03181333 -25.08612782 13.1979946 -24.3125 8.25 C-22.13487523 3.35034427 -19.23783441 1.05412887 -14.453125 -1.0546875 C-9.18516565 -2.76581298 -5.003692 -2.30517438 0 0 Z " fill="#FEFEFE" transform="translate(868.3125,43.75)"/>
</svg>
