<?xml version="1.0" encoding="UTF-8"?>
<svg version="1.1" xmlns="http://www.w3.org/2000/svg" width="1280" height="1280">
<path d="M0 0 C1.28390625 0.09023437 2.5678125 0.18046875 3.890625 0.2734375 C25.09716103 2.4521912 47.06135818 9.25173785 66 19 C66 19.66 66 20.32 66 21 C66.845625 21.0825 67.69125 21.165 68.5625 21.25 C72.72113491 22.15733853 75.39582699 23.76541273 79 26 C79 26.66 79 27.32 79 28 C79.7425 28.28875 80.485 28.5775 81.25 28.875 C83.56739797 29.82302644 85.77917115 30.84845911 88 32 C88 32.66 88 33.32 88 34 C89.32 34.33 90.64 34.66 92 35 C92 35.66 92 36.32 92 37 C92.763125 37.28875 93.52625 37.5775 94.3125 37.875 C97 39 97 39 100 41 C100 41.66 100 42.32 100 43 C100.61875 43.309375 101.2375 43.61875 101.875 43.9375 C103.25 44.625 104.625 45.3125 106 46 C106 46.66 106 47.32 106 48 C106.5775 48.2475 107.155 48.495 107.75 48.75 C110.32939979 50.18299988 112.06121592 51.78424676 114 54 C114 54.66 114 55.32 114 56 C114.639375 56.268125 115.27875 56.53625 115.9375 56.8125 C118 58 118 58 119 61 C119.86625 61.4021875 119.86625 61.4021875 120.75 61.8125 C124.09211003 63.5763914 125.7353113 65.98041507 128 69 C128 69.66 128 70.32 128 71 C128.99 71.33 129.98 71.66 131 72 C132.66196899 73.94901027 134.18446502 75.87352373 135.6875 77.9375 C136.10322266 78.48857422 136.51894531 79.03964844 136.94726562 79.60742188 C140 83.73287408 140 83.73287408 140 86 C140.66 86 141.32 86 142 86 C146 92.75 146 92.75 146 95 C146.66 95 147.32 95 148 95 C149.6735337 97.95449913 151.33763985 100.9142018 153 103.875 C153.47695312 104.71675781 153.95390625 105.55851562 154.4453125 106.42578125 C154.89648438 107.23144531 155.34765625 108.03710938 155.8125 108.8671875 C156.23144531 109.61081543 156.65039062 110.35444336 157.08203125 111.12060547 C158 113 158 113 158 115 C158.99 115.33 159.98 115.66 161 116 C161.71437885 117.87099222 162.41721976 119.74727311 163.05859375 121.64453125 C164.08080786 124.2021873 165.38093511 126.31321161 166.875 128.625 C170.65381395 134.71048451 172.7714154 141.22606479 175 148 C175.27585937 148.76957031 175.55171875 149.53914062 175.8359375 150.33203125 C178.02077377 156.47541495 179.49937945 162.80388177 181.03515625 169.1328125 C181.65481815 171.61647762 182.32292724 174.08882901 183.05078125 176.54296875 C189.38028785 199.5948755 187.57556834 228.55736533 184 252 C183.87882812 253.14855469 183.75765625 254.29710937 183.6328125 255.48046875 C182.24851842 268.207499 179.04314727 280.58753109 176 293 C175.73026367 294.1048877 175.46052734 295.20977539 175.18261719 296.34814453 C170.80566798 314.12589692 165.55390908 331.55940443 160 349 C159.07934003 351.91542324 158.16358403 354.83235297 157.25 357.75 C156.87617187 358.93980469 156.50234375 360.12960937 156.1171875 361.35546875 C155.28764352 364.06163845 154.48072343 366.76932933 153.6953125 369.48828125 C153.47456055 370.25108398 153.25380859 371.01388672 153.02636719 371.79980469 C152.60859923 373.25103161 152.19482588 374.7034179 151.78613281 376.15722656 C150.86388906 379.36863902 149.85698576 382.32656794 148.51171875 385.3984375 C146.7005438 389.71343313 145.54555508 394.02460567 144.4375 398.5625 C144.22061523 399.44510498 144.00373047 400.32770996 143.78027344 401.23706055 C139.35543946 419.69680988 137.37102006 439.22824784 140.3125 458.0625 C140.43044922 458.89587891 140.54839844 459.72925781 140.66992188 460.58789062 C141.42546298 465.56671281 142.59287727 470.16188129 144.27075195 474.90795898 C145.31291194 477.89767072 146.11338094 480.94403921 146.9375 484 C148.5205738 489.6132655 150.47361752 494.75696356 153 500 C154.34511684 503.08255941 155.68338528 506.15473899 156.86328125 509.3046875 C158.98705763 514.91565226 161.56188811 519.83429775 164.828125 524.87109375 C166 527 166 527 166 530 C165.33282959 530.35602295 164.66565918 530.7120459 163.97827148 531.07885742 C151.20215135 537.90523349 138.48187364 544.80179359 125.89135742 551.96606445 C118.2112456 556.33085053 110.4888244 560.61559155 102.75 564.875 C101.83592377 565.37812714 101.83592377 565.37812714 100.90338135 565.89141846 C100.29347351 566.22711853 99.68356567 566.5628186 99.05517578 566.90869141 C97.82192552 567.5875386 96.58868984 568.26641231 95.35546875 568.9453125 C94.74447327 569.28164703 94.13347778 569.61798157 93.50396729 569.96450806 C87.01254407 573.54005924 80.53790319 577.14553387 74.0625 580.75 C69.70967331 583.16908686 65.35540037 585.58555014 61 588 C59.9181543 588.59989746 58.83630859 589.19979492 57.72167969 589.81787109 C54.62965754 591.52937594 51.53424503 593.23455871 48.4375 594.9375 C47.50881104 595.4521582 46.58012207 595.96681641 45.62329102 596.49707031 C44.77694092 596.96081055 43.93059082 597.42455078 43.05859375 597.90234375 C41.94955688 598.51323853 41.94955688 598.51323853 40.81811523 599.13647461 C39 600 39 600 37 600 C35.7254916 597.64776003 34.45534102 595.29333069 33.1875 592.9375 C32.83107422 592.28072266 32.47464844 591.62394531 32.10742188 590.94726562 C29.8338344 586.71296968 27.886489 582.42420435 26 578 C25.02479889 576.1740375 24.02588727 574.3604743 23 572.5625 C20.89201749 568.75670892 19.13568154 565.05917916 17.70703125 560.95703125 C16.11086744 556.53892038 14.07494492 552.27132714 12.06640625 548.02734375 C3.87801886 530.39343065 -1.61017771 511.04150415 -5.3125 492 C-5.47186035 491.18885742 -5.6312207 490.37771484 -5.79541016 489.54199219 C-7.93443875 477.86813162 -8.19510247 466.0900809 -8.1875 454.25 C-8.1862915 452.27700928 -8.1862915 452.27700928 -8.18505859 450.26416016 C-8.12477275 440.67871134 -7.53954963 431.46026706 -6 422 C-5.84402344 420.92363281 -5.68804688 419.84726562 -5.52734375 418.73828125 C-4.61594723 412.75676288 -3.32119307 406.93214107 -1.78125 401.08203125 C-1.1721653 398.6791921 -0.64201316 396.29200269 -0.13671875 393.8671875 C1.10463461 388.23059767 2.89361358 382.7935578 4.6875 377.3125 C5.40383415 375.09901927 6.11997607 372.88547632 6.8359375 370.671875 C7.19655273 369.56134766 7.55716797 368.45082031 7.92871094 367.30664062 C9.57327024 362.23054417 11.19427146 357.14704011 12.8125 352.0625 C13.22858521 350.76082886 13.22858521 350.76082886 13.65307617 349.43286133 C32.18498884 293.2197815 32.18498884 293.2197815 29.52148438 234.99609375 C29.1559659 233.59699306 28.80992755 232.19272601 28.47851562 230.78515625 C25.07729406 216.44035514 18.77940433 204.54611746 11.09814453 192.02099609 C10 190 10 190 10 188 C9.01 187.67 8.02 187.34 7 187 C5.62464661 185.02866014 4.29788956 183.02318078 3 181 C2.09785796 179.90454181 1.18132367 178.82075913 0.25 177.75 C-2 175 -2 175 -2 173 C-2.66 173 -3.32 173 -4 173 C-4 172.34 -4 171.68 -4 171 C-4.99 170.67 -5.98 170.34 -7 170 C-7 169.34 -7 168.68 -7 168 C-7.66 168 -8.32 168 -9 168 C-9 167.34 -9 166.68 -9 166 C-9.57234375 165.7215625 -10.1446875 165.443125 -10.734375 165.15625 C-12.96617566 164.01726208 -15.10870874 162.80063617 -17.25 161.5 C-17.95640625 161.0771875 -18.6628125 160.654375 -19.390625 160.21875 C-19.92171875 159.8165625 -20.4528125 159.414375 -21 159 C-21 158.34 -21 157.68 -21 157 C-21.71542969 156.72027344 -22.43085937 156.44054687 -23.16796875 156.15234375 C-24.97967208 155.41516791 -26.77654181 154.63967509 -28.55078125 153.81640625 C-48.44444837 144.78406234 -70.43318454 144.82720641 -90.8125 152.3125 C-96.79858396 154.77648759 -102.39304446 157.78024826 -108 161 C-110.37387692 162.27685804 -112.7482019 163.55280653 -115.125 164.82421875 C-117.06718783 165.94233352 -117.06718783 165.94233352 -118.625 167.64453125 C-120 169 -120 169 -122 169 C-122.33 169.99 -122.66 170.98 -123 172 C-126.44444444 175 -126.44444444 175 -129 175 C-129.2475 175.556875 -129.495 176.11375 -129.75 176.6875 C-131.22924818 179.42410913 -132.93467439 181.67650869 -135 184 C-135.66 184 -136.32 184 -137 184 C-137.33 185.32 -137.66 186.64 -138 188 C-138.66 188 -139.32 188 -140 188 C-140.99 190.97 -140.99 190.97 -142 194 C-142.66 194 -143.32 194 -144 194 C-144.33 195.65 -144.66 197.3 -145 199 C-145.66 199 -146.32 199 -147 199 C-147.0825 199.78375 -147.165 200.5675 -147.25 201.375 C-147.87905837 204.41544879 -148.60726836 206.42461922 -149.875 209.1875 C-159.15732852 231.76429903 -154.51254197 257.04800889 -145.46484375 278.86328125 C-144.08840457 281.97349665 -144.08840457 281.97349665 -142.37890625 284.60546875 C-140.93715308 287.10913644 -140.40609436 289.15733948 -140 292 C-157.26171875 301.58984375 -174.5234375 311.1796875 -191.78515625 320.76953125 C-192.89366943 321.38538086 -194.00218262 322.00123047 -195.14428711 322.63574219 C-197.38855981 323.88254221 -199.63286339 325.12928666 -201.87719727 326.37597656 C-207.47874954 329.48763541 -213.07977682 332.60023145 -218.6796875 335.71484375 C-227.9738989 340.88304097 -237.26895142 346.04946663 -246.58203125 351.18359375 C-247.21396896 351.531978 -247.84590668 351.88036224 -248.49699402 352.23930359 C-251.62335312 353.96251667 -254.75024603 355.68475446 -257.87768555 357.40600586 C-263.03733811 360.24758728 -268.19191769 363.09622558 -273.3125 366.0078125 C-274.06893799 366.43787598 -274.82537598 366.86793945 -275.60473633 367.31103516 C-276.9428268 368.07489644 -278.27879654 368.84249144 -279.61206055 369.61474609 C-283.78357816 372 -283.78357816 372 -286 372 C-286.37125 371.0925 -286.7425 370.185 -287.125 369.25 C-288.5703108 365.86170062 -290.20197784 362.59386564 -291.875 359.3125 C-294.42909111 354.25501934 -296.69398255 349.13544504 -298.82421875 343.88671875 C-299.6755414 341.79659436 -300.56012936 339.71991771 -301.46484375 337.65234375 C-322.00352432 288.78805283 -324.43575872 231.87859041 -304.55078125 182.4609375 C-302.32329462 177.48977087 -299.9359029 172.62317796 -297.41796875 167.79296875 C-295.92649694 165.02531063 -295.92649694 165.02531063 -295 162 C-294.34 162 -293.68 162 -293 162 C-292.95875 161.195625 -292.9175 160.39125 -292.875 159.5625 C-291.82560238 155.28995256 -289.89223128 152.51113459 -287.375 148.953125 C-285.96350025 147.05133277 -285.96350025 147.05133277 -285 145 C-284.34 145 -283.68 145 -283 145 C-282.8453125 144.1646875 -282.8453125 144.1646875 -282.6875 143.3125 C-281.85821592 140.5230899 -280.65700944 138.3860936 -279 136 C-278.34 136 -277.68 136 -277 136 C-276.67 134.68 -276.34 133.36 -276 132 C-275.34 132 -274.68 132 -274 132 C-273.67 130.68 -273.34 129.36 -273 128 C-272.34 128 -271.68 128 -271 128 C-271 127.34 -271 126.68 -271 126 C-270.34 126 -269.68 126 -269 126 C-268.773125 125.484375 -268.54625 124.96875 -268.3125 124.4375 C-265.36001106 118.95430625 -261.65716784 114.15369023 -257 110 C-256.34 110 -255.68 110 -255 110 C-254.79375 109.46375 -254.5875 108.9275 -254.375 108.375 C-252.46749574 105.08021991 -249.95180616 102.40636372 -247 100 C-246.34 100 -245.68 100 -245 100 C-244.505 98.515 -244.505 98.515 -244 97 C-243.34 97 -242.68 97 -242 97 C-242 96.34 -242 95.68 -242 95 C-241.34 95 -240.68 95 -240 95 C-239.505 93.515 -239.505 93.515 -239 92 C-237.44140625 90.39453125 -237.44140625 90.39453125 -235.5625 88.8125 C-234.94503906 88.28269531 -234.32757812 87.75289063 -233.69140625 87.20703125 C-232 86 -232 86 -230 86 C-229.505 84.515 -229.505 84.515 -229 83 C-227.66666667 82.66666667 -226.33333333 82.33333333 -225 82 C-224.505 80.515 -224.505 80.515 -224 79 C-221.03145515 76.80585815 -218.50820059 75.1694002 -215 74 C-215 73.34 -215 72.68 -215 72 C-210.61538462 69 -210.61538462 69 -208 69 C-208 68.34 -208 67.68 -208 67 C-203.61538462 64 -203.61538462 64 -201 64 C-201 63.34 -201 62.68 -201 62 C-198.71125827 60.66141476 -196.41930344 59.32898986 -194.125 58 C-193.47402344 57.6184375 -192.82304688 57.236875 -192.15234375 56.84375 C-187.2265625 54 -187.2265625 54 -185 54 C-185 53.34 -185 52.68 -185 52 C-147.39931267 30.87230914 -147.39931267 30.87230914 -134.2109375 25.85546875 C-131.99600026 24.9984524 -129.8475667 24.04895645 -127.6875 23.0625 C-119.54003269 19.40621608 -111.20987233 16.19036558 -102.609375 13.7734375 C-100.2967587 13.08796141 -98.02258287 12.3396644 -95.73828125 11.56640625 C-64.96122356 1.25884609 -32.29720465 -2.45123712 0 0 Z " fill="#0389FE" transform="translate(873,124)"/>
<path d="M0 0 C1.08785797 0.00031723 1.08785797 0.00031723 2.19769287 0.00064087 C22.48947826 0.05899033 42.64771776 2.22207117 61.75 9.375 C63.06690785 9.8343327 64.38464249 10.29130073 65.703125 10.74609375 C80.85285402 16.07302843 94.57124199 23.51301949 108.01123047 32.24707031 C109.58452972 33.26766039 111.16862681 34.27155739 112.75390625 35.2734375 C117.34185442 38.21719141 117.34185442 38.21719141 118.75 39.375 C118.75 40.035 118.75 40.695 118.75 41.375 C119.306875 41.6225 119.86375 41.87 120.4375 42.125 C123.17410913 43.60424818 125.42650869 45.30967439 127.75 47.375 C127.75 48.035 127.75 48.695 127.75 49.375 C128.3378125 49.46136719 128.925625 49.54773438 129.53125 49.63671875 C132.36194539 50.57862267 133.37508785 51.89073261 135.25 54.1875 C137.1716608 56.49762556 139.03148358 58.64926606 141.1875 60.75 C142.75 62.375 142.75 62.375 142.75 64.375 C143.74 64.705 144.73 65.035 145.75 65.375 C147.94140625 67.703125 147.94140625 67.703125 150.3125 70.625 C151.09753906 71.57890625 151.88257813 72.5328125 152.69140625 73.515625 C154.75 76.375 154.75 76.375 155.83984375 79.171875 C156.29037109 80.26242187 156.29037109 80.26242187 156.75 81.375 C157.74 81.705 158.73 82.035 159.75 82.375 C160.45151152 83.6903341 161.11525925 85.02617592 161.75 86.375 C162.42216553 87.02976318 162.42216553 87.02976318 163.10791016 87.69775391 C169.61658812 94.34577912 173.86540084 103.93019097 178.375 112 C179.19484375 113.45792969 179.19484375 113.45792969 180.03125 114.9453125 C181.10236344 116.85179192 182.17120906 118.75954762 183.23754883 120.66870117 C184.22278322 122.43162663 185.2120091 124.1923292 186.20581055 125.95043945 C186.64965088 126.73894287 187.09349121 127.52744629 187.55078125 128.33984375 C187.93919189 129.0268335 188.32760254 129.71382324 188.7277832 130.42163086 C190.06493134 132.97680693 191.05964304 135.59065695 192.01171875 138.30859375 C192.80678286 140.53393193 193.71176666 142.69561048 194.625 144.875 C198.7608108 155.26188362 201.7929271 165.79873402 204 176.75 C204.16306641 177.55743652 204.32613281 178.36487305 204.49414062 179.19677734 C206.32838117 188.74458478 206.92216555 198.29922908 207.3125 208 C207.35568359 208.98484375 207.39886719 209.9696875 207.44335938 210.984375 C208.46382337 235.28113689 205.60960391 259.78399053 199.75 283.375 C199.24834023 285.62463052 198.74835091 287.87463417 198.25 290.125 C197.23651199 294.52733855 196.03893923 298.76341132 194.53710938 303.02099609 C193.73857602 305.40916564 193.05888832 307.80240898 192.40625 310.234375 C192.01469727 311.68481201 192.01469727 311.68481201 191.61523438 313.16455078 C191.18694336 314.75372314 191.18694336 314.75372314 190.75 316.375 C189.42210842 321.25149624 188.0866122 326.12588785 186.75 331 C186.40710938 332.258125 186.06421875 333.51625 185.7109375 334.8125 C184.10369655 340.66482012 182.45969234 346.47517821 180.48730469 352.21533203 C179.04090919 356.45202561 177.72359674 360.73138507 176.375 365 C174.32423958 371.47756681 172.24142926 377.93940088 170.0625 384.375 C166.4282342 395.24193292 163.21209487 405.98605046 161.75 417.375 C161.63785156 418.24640625 161.52570313 419.1178125 161.41015625 420.015625 C159.13214096 441.85960719 161.11630315 462.47885493 167.75 483.375 C168.02328125 484.29667969 168.2965625 485.21835937 168.578125 486.16796875 C172.75774037 499.63772918 178.40179944 513.3140102 185.8515625 525.31640625 C186.75 527.375 186.75 527.375 186.58984375 529.33007812 C185.41516644 532.1902808 183.93673766 532.74469096 181.2109375 534.15234375 C180.24994141 534.65894531 179.28894531 535.16554688 178.29882812 535.6875 C176.7277832 536.491875 176.7277832 536.491875 175.125 537.3125 C172.91301273 538.47587077 170.70210011 539.6412868 168.4921875 540.80859375 C167.36393555 541.40140137 166.23568359 541.99420898 165.07324219 542.60498047 C160.07709 545.26602244 155.16356908 548.06523163 150.25 550.875 C142.4675749 555.30619579 134.63595915 559.6308715 126.75 563.875 C118.97184609 568.06265831 111.2426373 572.32264099 103.5625 576.6875 C95.07102663 581.5081763 86.56300115 586.29768941 78.02474976 591.03500366 C76.72533013 591.75680915 75.42683293 592.48027795 74.12930298 593.20547485 C72.31393365 594.21963404 70.49532837 595.22773536 68.67578125 596.234375 C67.62817627 596.81670898 66.58057129 597.39904297 65.5012207 597.99902344 C63.19251738 599.1536824 61.26986393 599.90538041 58.75 600.375 C56.74111021 597.04693925 54.74426441 593.71184045 52.75 590.375 C52.35941406 589.73433594 51.96882813 589.09367188 51.56640625 588.43359375 C49.45391581 584.89085686 47.96332929 581.39185801 46.58984375 577.53125 C45.30977089 574.24473734 43.67721541 571.15422507 42.07421875 568.015625 C39.82609193 563.53263464 37.79647639 558.95264456 35.75 554.375 C35.399375 553.6015625 35.04875 552.828125 34.6875 552.03125 C30.42085955 542.56464151 26.93125661 533.03871863 23.90625 523.11328125 C23.05925657 520.37485994 22.16442857 517.69186297 21.1875 515 C11.81744652 487.15603425 10.16802961 455.27378605 14.75 426.375 C14.87890625 425.55483398 15.0078125 424.73466797 15.140625 423.88964844 C17.87278512 406.94646106 21.39805068 389.896619 26.9753418 373.64233398 C28.42864747 369.38867821 29.76555745 365.09688415 31.125 360.8125 C31.43026611 359.85158447 31.73553223 358.89066895 32.05004883 357.90063477 C34.26408682 350.92388791 36.46633762 343.94358334 38.63671875 336.953125 C39.34069215 334.69052979 40.05083822 332.42983779 40.76953125 330.171875 C41.79643961 326.91522539 42.78390111 323.65022161 43.75 320.375 C44.04390625 319.38137451 44.04390625 319.38137451 44.34375 318.36767578 C55.18234739 281.16927082 58.35301379 240.43169745 39.55029297 205.12207031 C34.24684104 195.63502676 28.48256931 187.02779111 21.5 178.6875 C19.75 176.375 19.75 176.375 19.75 174.375 C19.09 174.375 18.43 174.375 17.75 174.375 C17.21375 173.67375 16.6775 172.9725 16.125 172.25 C13.50458679 169.07792085 10.7219035 167.03257559 7.359375 164.70703125 C6.82828125 164.26746094 6.2971875 163.82789063 5.75 163.375 C5.75 162.715 5.75 162.055 5.75 161.375 C5.08226562 161.12621094 4.41453125 160.87742187 3.7265625 160.62109375 C0.78218667 159.38847447 -1.99389932 157.98361802 -4.81958008 156.50610352 C-15.46862352 150.96971402 -25.19342142 147.97329638 -37.25 147.375 C-37.95253906 147.32214844 -38.65507812 147.26929688 -39.37890625 147.21484375 C-52.86757856 146.62615407 -67.81333514 150.81723625 -79.3125 157.6875 C-82.25 159.375 -82.25 159.375 -86.25 159.375 C-86.25 160.035 -86.25 160.695 -86.25 161.375 C-88.296875 162.8125 -88.296875 162.8125 -91 164.375 C-92.32257813 165.1484375 -92.32257813 165.1484375 -93.671875 165.9375 C-95.8401988 167.14650479 -98.01767294 168.29013077 -100.25 169.375 C-100.25 170.035 -100.25 170.695 -100.25 171.375 C-104.72058824 175.375 -104.72058824 175.375 -107.25 175.375 C-107.58 176.365 -107.91 177.355 -108.25 178.375 C-108.91 178.375 -109.57 178.375 -110.25 178.375 C-110.25 179.035 -110.25 179.695 -110.25 180.375 C-110.91 180.375 -111.57 180.375 -112.25 180.375 C-112.51554688 180.94734375 -112.78109375 181.5196875 -113.0546875 182.109375 C-114.30756105 184.48410265 -115.76225109 186.47966889 -117.375 188.625 C-127.01109185 202.27277026 -132.59518571 216.62762849 -133.25 233.375 C-133.30285156 234.64859375 -133.35570312 235.9221875 -133.41015625 237.234375 C-133.65773273 246.00006348 -132.71890027 253.92979353 -130.25 262.375 C-130.06244141 263.0359668 -129.87488281 263.69693359 -129.68164062 264.37792969 C-129.07395098 266.50681008 -128.447718 268.62917969 -127.8125 270.75 C-127.61954346 271.40419922 -127.42658691 272.05839844 -127.2277832 272.73242188 C-125.76814619 277.40230825 -123.70660225 281.18726867 -121.25 285.375 C-120.37720965 287.7093025 -119.84485424 289.94601186 -119.25 292.375 C-125.83281413 296.59149494 -132.59403204 300.41165634 -139.4375 304.1875 C-140.6263987 304.84552858 -141.81519855 305.50373581 -143.00390625 306.16210938 C-146.75082786 308.23629478 -150.50019681 310.30602975 -154.25 312.375 C-155.46826282 313.04736129 -156.68652455 313.71972455 -157.90478516 314.39208984 C-162.7374876 317.05893947 -167.57065919 319.72493711 -172.40454102 322.38964844 C-183.91727618 328.73711905 -195.40940703 335.12145005 -206.8984375 341.51171875 C-210.28559478 343.39478871 -213.67386997 345.27583173 -217.0625 347.15625 C-218.18962402 347.78200928 -219.31674805 348.40776855 -220.47802734 349.05249023 C-222.72249497 350.29796491 -224.967601 351.54228989 -227.21337891 352.78540039 C-232.36373268 355.64036452 -237.5039289 358.51011299 -242.61190796 361.44017029 C-244.36775827 362.44724752 -246.12572646 363.45052827 -247.88427734 364.45288086 C-250.08477087 365.70955325 -252.28063838 366.97437004 -254.47119141 368.24829102 C-255.45007324 368.80572998 -256.42895508 369.36316895 -257.4375 369.9375 C-258.72720703 370.68193359 -258.72720703 370.68193359 -260.04296875 371.44140625 C-262.25 372.375 -262.25 372.375 -265.25 371.375 C-266.69694912 368.73057575 -267.97908615 366.1032284 -269.25 363.375 C-270.26678752 361.35212798 -271.28783549 359.33139344 -272.3125 357.3125 C-276.20293382 349.51213143 -279.36389607 341.59166599 -282.25 333.375 C-282.64316406 332.26125 -283.03632813 331.1475 -283.44140625 330 C-293.55023549 300.59249674 -299.50535886 269.53343477 -296.25 238.375 C-296.16621094 237.55644531 -296.08242188 236.73789062 -295.99609375 235.89453125 C-293.0198056 208.52106417 -284.29338946 183.92838987 -272.25 159.375 C-271.59 159.375 -270.93 159.375 -270.25 159.375 C-270.1675 158.694375 -270.085 158.01375 -270 157.3125 C-269.02667472 153.5003093 -267.29192545 150.73429671 -265.25 147.375 C-264.59 147.375 -263.93 147.375 -263.25 147.375 C-262.940625 146.59125 -262.63125 145.8075 -262.3125 145 C-261.25 142.375 -261.25 142.375 -260.25 140.375 C-259.59 140.375 -258.93 140.375 -258.25 140.375 C-257.26 137.405 -257.26 137.405 -256.25 134.375 C-255.59 134.375 -254.93 134.375 -254.25 134.375 C-254.0025 133.83875 -253.755 133.3025 -253.5 132.75 C-251.94347463 129.7926018 -250.21564327 127.07775949 -248.25 124.375 C-247.59 124.375 -246.93 124.375 -246.25 124.375 C-245.87875 123.5396875 -245.87875 123.5396875 -245.5 122.6875 C-244.02075182 119.95089087 -242.31532561 117.69849131 -240.25 115.375 C-239.59 115.375 -238.93 115.375 -238.25 115.375 C-237.981875 114.735625 -237.71375 114.09625 -237.4375 113.4375 C-236.25 111.375 -236.25 111.375 -233.25 110.375 C-232.90691024 109.04414377 -232.5746459 107.71047517 -232.25 106.375 C-230.796875 104.84765625 -230.796875 104.84765625 -229 103.4375 C-225.24607218 100.39127989 -221.85805761 97.10217299 -218.5625 93.5625 C-217.25 92.375 -217.25 92.375 -215.25 92.375 C-214.755 90.89 -214.755 90.89 -214.25 89.375 C-210.80555556 86.375 -210.80555556 86.375 -208.25 86.375 C-207.755 84.89 -207.755 84.89 -207.25 83.375 C-205.91666667 83.04166667 -204.58333333 82.70833333 -203.25 82.375 C-202.755 80.89 -202.755 80.89 -202.25 79.375 C-200.91666667 79.04166667 -199.58333333 78.70833333 -198.25 78.375 C-197.755 76.89 -197.755 76.89 -197.25 75.375 C-195.1875 74.6875 -195.1875 74.6875 -193.25 74.375 C-193.25 73.715 -193.25 73.055 -193.25 72.375 C-188.86538462 69.375 -188.86538462 69.375 -186.25 69.375 C-186.25 68.715 -186.25 68.055 -186.25 67.375 C-181.86538462 64.375 -181.86538462 64.375 -179.25 64.375 C-178.92 63.385 -178.59 62.395 -178.25 61.375 C-176.0810777 59.96829056 -173.95897164 58.71677592 -171.6875 57.5 C-170.4768699 56.83775261 -169.26724194 56.17367013 -168.05859375 55.5078125 C-167.43388184 55.16419678 -166.80916992 54.82058105 -166.16552734 54.46655273 C-164.21930667 53.35750957 -162.33122451 52.18284109 -160.44140625 50.98046875 C-155.66031249 47.96070889 -150.71909333 45.2583169 -145.75 42.5625 C-144.29750854 41.774198 -144.29750854 41.774198 -142.81567383 40.9699707 C-129.86409956 33.97314323 -116.90287984 27.56003908 -103.20605469 22.14794922 C-101.41799538 21.4413846 -99.6345236 20.72323883 -97.8515625 20.00390625 C-85.19567383 14.98842444 -72.35760516 11.2378297 -59.08984375 8.26953125 C-56.61752649 7.69357942 -54.15765202 7.05962077 -51.71875 6.35546875 C-48.10041303 5.3327181 -44.5073076 4.57084913 -40.8125 3.875 C-38.95818359 3.51921875 -38.95818359 3.51921875 -37.06640625 3.15625 C-24.70014927 1.05768313 -12.5438019 -0.03426872 0 0 Z " fill="#038AFE" transform="translate(346.25,403.625)"/>
<path d="M0 0 C0.73863281 0.32226562 1.47726562 0.64453125 2.23828125 0.9765625 C3.76609399 1.64931366 5.29095479 2.3288164 6.8125 3.015625 C9.85746831 4.38586074 12.92760545 5.69259806 16 7 C16 7.66 16 8.32 16 9 C16.763125 9.28875 17.52625 9.5775 18.3125 9.875 C21 11 21 11 24 13 C24 13.66 24 14.32 24 15 C24.66 15 25.32 15 26 15 C26 15.66 26 16.32 26 17 C26.639375 17.268125 27.27875 17.53625 27.9375 17.8125 C30 19 30 19 31 22 C31.99 22.33 32.98 22.66 34 23 C35.38671875 24.55859375 35.38671875 24.55859375 36.6875 26.4375 C37.12449219 27.05496094 37.56148437 27.67242188 38.01171875 28.30859375 C39 30 39 30 39 32 C39.99 32.33 40.98 32.66 42 33 C55.17339835 54.32092672 58.75098219 77.73106808 53.328125 102.0078125 C50.62088574 112.1982697 45.32432138 120.989727 40 130 C39.34 130 38.68 130 38 130 C37.71125 130.598125 37.4225 131.19625 37.125 131.8125 C36 134 36 134 34 137 C33.34 137 32.68 137 32 137 C32 137.66 32 138.32 32 139 C31.34 139 30.68 139 30 139 C29.67 139.99 29.34 140.98 29 142 C24.54285714 146 24.54285714 146 22 146 C22 146.66 22 147.32 22 148 C21.401875 148.268125 20.80375 148.53625 20.1875 148.8125 C18.00286691 149.85467046 18.00286691 149.85467046 16.65820312 151.40063477 C13.22137528 154.71551392 8.66840601 156.67409965 4.5 158.9375 C3.08460938 159.72543945 3.08460938 159.72543945 1.640625 160.52929688 C-18.96328588 171.77419086 -43.88348151 177.31549329 -67 171 C-76.88705981 167.98775791 -85.53103846 164.00723414 -94 158 C-94.99 157.34 -95.98 156.68 -97 156 C-97 155.34 -97 154.68 -97 154 C-97.66 154 -98.32 154 -99 154 C-99 153.34 -99 152.68 -99 152 C-99.86625 151.62875 -99.86625 151.62875 -100.75 151.25 C-103.32939979 149.81700012 -105.06121592 148.21575324 -107 146 C-107 145.34 -107 144.68 -107 144 C-107.99 143.67 -108.98 143.34 -110 143 C-111.46101415 141.02298085 -112.74154736 139.10086417 -114 137 C-114.36754395 136.39075684 -114.73508789 135.78151367 -115.11376953 135.15380859 C-123.91653775 120.30408524 -123.91653775 120.30408524 -126 112 C-126.26296875 111.11570312 -126.5259375 110.23140625 -126.796875 109.3203125 C-132.2893028 89.78592307 -130.28626067 68.83886193 -121 50.75 C-120.505 49.77546875 -120.01 48.8009375 -119.5 47.796875 C-116.5814234 42.35494572 -116.5814234 42.35494572 -115 40 C-114.34 40 -113.68 40 -113 40 C-112.67 38.68 -112.34 37.36 -112 36 C-111.34 36 -110.68 36 -110 36 C-109.896875 35.401875 -109.79375 34.80375 -109.6875 34.1875 C-108.90175967 31.68741714 -108.03081147 30.62464918 -106 29 C-105.34 29 -104.68 29 -104 29 C-104 28.34 -104 27.68 -104 27 C-99.52941176 23 -99.52941176 23 -97 23 C-96.505 21.515 -96.505 21.515 -96 20 C-94.03098893 18.51672179 -92.11082979 17.26083467 -90 16 C-88.76926758 15.26305908 -88.76926758 15.26305908 -87.51367188 14.51123047 C-84.60607359 12.79537969 -81.68047851 11.11394491 -78.75 9.4375 C-77.76386719 8.86064453 -76.77773438 8.28378906 -75.76171875 7.68945312 C-70.35588278 4.60193021 -65.24497674 2.16666404 -59.21386719 0.58251953 C-56.92587968 -0.01950277 -54.72707565 -0.7664521 -52.5 -1.5625 C-36.05588736 -6.98677327 -15.98718447 -7.18599219 0 0 Z " fill="#0389FE" transform="translate(593,1036)"/>
<path d="M0 0 C0.95519531 -0.00386719 1.91039062 -0.00773438 2.89453125 -0.01171875 C20.81361098 0.01286161 38.91254669 5.87105738 53.125 17.125 C53.125 17.785 53.125 18.445 53.125 19.125 C53.764375 19.393125 54.40375 19.66125 55.0625 19.9375 C57.125 21.125 57.125 21.125 58.125 24.125 C59.115 24.455 60.105 24.785 61.125 25.125 C61.125 25.785 61.125 26.445 61.125 27.125 C61.785 27.125 62.445 27.125 63.125 27.125 C75.17060754 40.46120834 82.75528587 57.41321914 85.125 75.125 C85.26035156 76.13175781 85.39570312 77.13851562 85.53515625 78.17578125 C87.17495503 93.61250774 83.33493825 106.822245 78.125 121.125 C77.465 121.125 76.805 121.125 76.125 121.125 C76.0425 121.805625 75.96 122.48625 75.875 123.1875 C74.90167472 126.9996907 73.16692545 129.76570329 71.125 133.125 C70.465 133.125 69.805 133.125 69.125 133.125 C68.815625 133.74375 68.50625 134.3625 68.1875 135 C67.5 136.375 66.8125 137.75 66.125 139.125 C65.465 139.125 64.805 139.125 64.125 139.125 C63.856875 139.764375 63.58875 140.40375 63.3125 141.0625 C62.125 143.125 62.125 143.125 59.125 144.125 C58.795 145.115 58.465 146.105 58.125 147.125 C57.465 147.125 56.805 147.125 56.125 147.125 C55.795 148.115 55.465 149.105 55.125 150.125 C53.56640625 151.51171875 53.56640625 151.51171875 51.6875 152.8125 C51.07003906 153.24949219 50.45257812 153.68648437 49.81640625 154.13671875 C48.125 155.125 48.125 155.125 46.125 155.125 C46.125 155.785 46.125 156.445 46.125 157.125 C42.42164157 159.25875871 38.7114918 161.38042516 35 163.5 C33.95328125 164.10328125 32.9065625 164.7065625 31.828125 165.328125 C30.80976562 165.90820312 29.79140625 166.48828125 28.7421875 167.0859375 C27.81003418 167.62009277 26.87788086 168.15424805 25.91748047 168.70458984 C23.03415545 170.17120857 20.21435602 171.17725371 17.125 172.125 C16.09391113 172.45673218 16.09391113 172.45673218 15.04199219 172.79516602 C-1.45946098 177.94594598 -1.45946098 177.94594598 -9.875 178.125 C-10.83792969 178.15207031 -11.80085938 178.17914062 -12.79296875 178.20703125 C-22.77529348 178.34620181 -31.49714107 177.59464414 -40.875 174.125 C-42.49818456 173.57791713 -44.12316966 173.03614441 -45.75 172.5 C-48.125 171.70833333 -50.5 170.91666667 -52.875 170.125 C-52.875 169.465 -52.875 168.805 -52.875 168.125 C-53.94234375 167.99544922 -53.94234375 167.99544922 -55.03125 167.86328125 C-58.48108263 166.96765163 -60.53940618 165.45910824 -63.375 163.3125 C-64.75171875 162.28189453 -64.75171875 162.28189453 -66.15625 161.23046875 C-74.667686 154.63899748 -74.667686 154.63899748 -77.875 150.125 C-77.875 149.465 -77.875 148.805 -77.875 148.125 C-78.535 148.125 -79.195 148.125 -79.875 148.125 C-81.43049727 145.98694197 -82.85469482 143.86463061 -84.25 141.625 C-84.65629639 140.97934082 -85.06259277 140.33368164 -85.48120117 139.66845703 C-90.61008067 131.43865926 -94.04891644 123.42897879 -96.875 114.125 C-97.17792969 113.17625 -97.48085938 112.2275 -97.79296875 111.25 C-103.19416696 92.58670477 -99.1805849 70.2986698 -90.5625 53.0625 C-90.005625 52.093125 -89.44875 51.12375 -88.875 50.125 C-88.215 50.125 -87.555 50.125 -86.875 50.125 C-86.545 48.475 -86.215 46.825 -85.875 45.125 C-85.215 45.125 -84.555 45.125 -83.875 45.125 C-83.6378125 44.57328125 -83.400625 44.0215625 -83.15625 43.453125 C-81.56254857 40.55725289 -79.58582727 38.32987963 -77.375 35.875 C-76.5809375 34.98296875 -75.786875 34.0909375 -74.96875 33.171875 C-72.875 31.125 -72.875 31.125 -70.875 31.125 C-70.545 30.135 -70.215 29.145 -69.875 28.125 C-69.215 28.125 -68.555 28.125 -67.875 28.125 C-67.875 27.465 -67.875 26.805 -67.875 26.125 C-63.49038462 23.125 -63.49038462 23.125 -60.875 23.125 C-60.875 22.465 -60.875 21.805 -60.875 21.125 C-57.50521782 19.17283704 -54.12776473 17.23471176 -50.74316406 15.30834961 C-49.03826969 14.33436303 -47.339367 13.34991215 -45.640625 12.36523438 C-39.14855866 8.68003201 -33.09046699 5.97753294 -25.875 4.125 C-23.59834987 3.36897618 -21.33869911 2.57585503 -19.078125 1.7734375 C-12.75579044 -0.08739147 -6.53127978 -0.02623004 0 0 Z " fill="#038AFE" transform="translate(1068.875,750.875)"/>
</svg>
