<?xml version="1.0" encoding="UTF-8"?>
<svg version="1.1" xmlns="http://www.w3.org/2000/svg" width="1280" height="1280">
<path d="M0 0 C0.77730469 0.34160156 1.55460937 0.68320312 2.35546875 1.03515625 C3.86719797 1.70112742 5.37649057 2.37266835 6.8828125 3.05078125 C9.90563087 4.40603008 12.95183682 5.70290929 16 7 C16 7.66 16 8.32 16 9 C16.7425 9.28875 17.485 9.5775 18.25 9.875 C20.56739797 10.82302644 22.77917115 11.84845911 25 13 C25 13.66 25 14.32 25 15 C26.32 15.33 27.64 15.66 29 16 C29 16.66 29 17.32 29 18 C30.32 18.33 31.64 18.66 33 19 C33 19.66 33 20.32 33 21 C33.66 21 34.32 21 35 21 C35 21.66 35 22.32 35 23 C36.32 23.33 37.64 23.66 39 24 C39 24.66 39 25.32 39 26 C39.99 26.33 40.98 26.66 42 27 C42 27.66 42 28.32 42 29 C42.66 29 43.32 29 44 29 C45.7265625 30.6796875 45.7265625 30.6796875 47.625 32.875 C48.57246094 33.95394531 48.57246094 33.95394531 49.5390625 35.0546875 C51 37 51 37 51 39 C51.66 39 52.32 39 53 39 C54.38903267 40.62053812 55.71332828 42.29705213 57 44 C57.680625 44.825 58.36125 45.65 59.0625 46.5 C60.9327976 48.91328723 62.45099403 51.37342466 64 54 C64.46277344 54.59554687 64.92554688 55.19109375 65.40234375 55.8046875 C67.82848636 59.13840913 69.59804837 62.79104596 71.5 66.44140625 C72.84827983 68.74120648 74.13079008 70.15632574 76 72 C76.9921875 73.875 76.9921875 73.875 77.875 76 C78.93772674 78.51740972 80.0051044 81.01059373 81.19140625 83.47265625 C102.43684056 127.62852756 92.93391489 173.49548429 80.875 218.5625 C80.66335205 219.35863708 80.4517041 220.15477417 80.23364258 220.97503662 C78.15532617 228.76026818 76.03226029 236.40476828 72.87548828 243.8371582 C71.43028408 247.40744933 70.47282807 251.09105973 69.5 254.8125 C68.03015411 260.2929907 66.48633264 265.72097921 64.75 271.125 C63.28139297 275.80802803 62.43575546 280.11953884 62 285 C61.83242188 285.77730469 61.66484375 286.55460937 61.4921875 287.35546875 C58.25165005 304.7669279 63.08716356 325.06489542 70 341 C70.44085938 342.0418042 70.88171875 343.0836084 71.3359375 344.15698242 C73.03537365 348.12406971 74.85167296 352.03205585 76.6875 355.9375 C77.00783203 356.62134766 77.32816406 357.30519531 77.65820312 358.00976562 C78.43778679 359.67365316 79.21874751 361.33689538 80 363 C79.26289795 363.40613525 78.5257959 363.81227051 77.76635742 364.23071289 C60.97035294 373.486872 44.19032324 382.77092015 27.43066406 392.09277344 C23.80622764 394.10772485 20.18061697 396.1205497 16.5546875 398.1328125 C14.71363058 399.15475191 12.87259107 400.17672267 11.03155518 401.19869995 C9.30161797 402.15885096 7.57146656 403.11861599 5.84130859 404.07836914 C4.78508301 404.66481201 3.72885742 405.25125488 2.640625 405.85546875 C1.65900391 406.39993652 0.67738281 406.9444043 -0.33398438 407.50537109 C-2.61930898 408.78657597 -4.88210798 410.09823378 -7.140625 411.42578125 C-10 413 -10 413 -12 413 C-15.18726726 407.59209572 -17.78542604 402.20672117 -20.03125 396.34765625 C-20.911494 394.2144843 -21.89082001 392.29636726 -23.0625 390.3125 C-25.03377022 386.94226381 -26.5293369 383.61538012 -28 380 C-28.3196875 379.22527344 -28.639375 378.45054687 -28.96875 377.65234375 C-30.91589001 372.88037561 -32.70530228 368.09204778 -34.2890625 363.1875 C-34.744688 361.78557539 -35.21720493 360.38896197 -35.7109375 359 C-43.78437736 336.08184814 -45.56690192 312.96105682 -42.26025391 288.953125 C-42.03516106 287.26387289 -41.84802471 285.56964431 -41.66796875 283.875 C-40.38061112 273.23661609 -36.97231592 263.05236059 -33.85986328 252.83447266 C-33.30280666 250.99817868 -32.75377934 249.15942194 -32.21435547 247.31787109 C-31.11566313 243.57086499 -29.99092749 239.8813912 -28.5625 236.24609375 C-17.43233061 207.31200105 -9.42649092 172.2997423 -21.38671875 142.55078125 C-23.13296789 138.70734186 -25.01487003 134.97398442 -27 131.25 C-27.34289062 130.59128906 -27.68578125 129.93257812 -28.0390625 129.25390625 C-29.73277552 126.06688137 -31.34401545 123.44544919 -34 121 C-34.165 120.29875 -34.33 119.5975 -34.5 118.875 C-34.665 118.25625 -34.83 117.6375 -35 117 C-35.99 116.67 -36.98 116.34 -38 116 C-39.39453125 114.51171875 -39.39453125 114.51171875 -40.8125 112.6875 C-42.82937242 110.22074877 -44.67025043 108.37557066 -47.375 106.6875 C-48.24125 106.130625 -49.1075 105.57375 -50 105 C-50 104.34 -50 103.68 -50 103 C-51.06154297 102.58427734 -51.06154297 102.58427734 -52.14453125 102.16015625 C-54.03262929 101.39303571 -55.90604497 100.58862739 -57.76171875 99.74609375 C-64.30670712 96.81876251 -69.84603915 95.17528847 -77 95 C-77.93457031 94.938125 -78.86914062 94.87625 -79.83203125 94.8125 C-93.14487018 94.25416337 -106.20963596 99.39769806 -117 107 C-118.3303125 107.7734375 -118.3303125 107.7734375 -119.6875 108.5625 C-122.01690697 109.88909031 -122.01690697 109.88909031 -123.6875 111.6875 C-124.120625 112.120625 -124.55375 112.55375 -125 113 C-125.66 113 -126.32 113 -127 113 C-127 113.66 -127 114.32 -127 115 C-127.66 115 -128.32 115 -129 115 C-129.433125 115.8971875 -129.433125 115.8971875 -129.875 116.8125 C-131 119 -131 119 -133 122 C-133.66 122 -134.32 122 -135 122 C-135.2475 122.680625 -135.495 123.36125 -135.75 124.0625 C-137 127 -137 127 -138.94140625 130.18359375 C-141.13740479 133.98989135 -142.2197813 137.73713789 -143.1875 142 C-143.4340332 143.00933594 -143.4340332 143.00933594 -143.68554688 144.0390625 C-148.07199279 162.43727291 -143.6049478 179.50932392 -135 196 C-146.60344817 202.6186147 -158.23636201 209.1696784 -170 215.5 C-177.77818255 219.68762431 -185.50719577 223.94792774 -193.1875 228.3125 C-201.66652517 233.12230045 -210.15239534 237.91938275 -218.6703186 242.66000366 C-219.96333898 243.38103548 -221.25501172 244.10448985 -222.54525757 244.83047485 C-224.35215365 245.84660923 -226.16368837 246.85395456 -227.9765625 247.859375 C-229.54011475 248.73287598 -229.54011475 248.73287598 -231.13525391 249.62402344 C-233.81751281 250.91234892 -236.06915538 251.58082655 -239 252 C-240.10675619 249.8137775 -241.21044378 247.62609052 -242.3125 245.4375 C-242.62123047 244.82841797 -242.92996094 244.21933594 -243.24804688 243.59179688 C-246.7814476 236.56218911 -249.59951933 229.43253904 -252.03125 221.953125 C-252.5908525 220.24723994 -253.16573305 218.54589143 -253.78125 216.859375 C-265.50865692 184.48153414 -263.39894388 147.2791239 -250.66796875 115.5546875 C-246.87981785 107.48157902 -242.41946835 99.74073767 -238 92 C-237.34 92 -236.68 92 -236 92 C-235.77957031 91.319375 -235.55914062 90.63875 -235.33203125 89.9375 C-233.61834532 86.1583451 -231.27728177 83.21917097 -228.6875 80 C-228.21376953 79.39671875 -227.74003906 78.7934375 -227.25195312 78.171875 C-224.36739447 74.5415139 -221.29644447 71.26807575 -218 68 C-217.01 66.515 -217.01 66.515 -216 65 C-215.34 65 -214.68 65 -214 65 C-213.505 63.515 -213.505 63.515 -213 62 C-212.34 62 -211.68 62 -211 62 C-211 61.34 -211 60.68 -211 60 C-210.34 60 -209.68 60 -209 60 C-208.505 58.515 -208.505 58.515 -208 57 C-207.34 57 -206.68 57 -206 57 C-206 56.34 -206 55.68 -206 55 C-201.52941176 51 -201.52941176 51 -199 51 C-198.67 50.01 -198.34 49.02 -198 48 C-195.9375 47.3125 -195.9375 47.3125 -194 47 C-194 46.34 -194 45.68 -194 45 C-192.35 44.34 -190.7 43.68 -189 43 C-189 42.34 -189 41.68 -189 41 C-184.61538462 38 -184.61538462 38 -182 38 C-182 37.34 -182 36.68 -182 36 C-180.12890625 34.703125 -180.12890625 34.703125 -177.5625 33.25 C-174.28313681 31.35262158 -171.1035341 29.42185687 -168 27.25 C-158.54360526 20.87831156 -148.20985629 14.83690109 -137.48046875 10.921875 C-134.28599137 9.73463616 -131.18542283 8.36395765 -128.0625 7 C-119.48235778 3.31351033 -110.95553616 0.10858253 -101.8984375 -2.19140625 C-99.48389368 -2.8650054 -97.18565227 -3.64626996 -94.828125 -4.48828125 C-89.74725721 -6.20144971 -84.68024009 -6.95228944 -79.375 -7.625 C-78.02148438 -7.80675781 -78.02148438 -7.80675781 -76.640625 -7.9921875 C-74.88390585 -8.22778249 -73.12659003 -8.45897943 -71.36865234 -8.68530273 C-69.36650848 -8.95130598 -67.36986435 -9.25822192 -65.375 -9.57421875 C-44.04011009 -12.26577315 -19.54905596 -8.92381418 0 0 Z " fill="#F31000" transform="translate(390,537)"/>
<path d="M0 0 C0 0.66 0 1.32 0 2 C0.928125 2.144375 1.85625 2.28875 2.8125 2.4375 C6 3 6 3 9 4 C9 4.66 9 5.32 9 6 C9.69480469 6.09410156 10.38960937 6.18820313 11.10546875 6.28515625 C14.59372656 7.14662883 17.21741023 8.61974887 20.3125 10.4375 C21.38113281 11.05496094 22.44976563 11.67242187 23.55078125 12.30859375 C24.76314453 13.14583984 24.76314453 13.14583984 26 14 C26 14.66 26 15.32 26 16 C26.86625 16.433125 26.86625 16.433125 27.75 16.875 C29.83333333 17.91666667 31.91666667 18.95833333 34 20 C34 20.66 34 21.32 34 22 C34.66 22 35.32 22 36 22 C36 22.66 36 23.32 36 24 C36.8353125 24.3403125 36.8353125 24.3403125 37.6875 24.6875 C40.65855185 26.37377267 42.64522125 28.530354 45 31 C45.886875 31.845625 46.77375 32.69125 47.6875 33.5625 C49.71171046 35.69612724 50.90335323 37.30823065 52 40 C52.66 40 53.32 40 54 40 C55.40234375 41.86328125 55.40234375 41.86328125 56.9375 44.3125 C58.76502336 47.2150371 60.5312494 49.62620135 63 52 C66.63683187 57.14172782 69.83269873 62.55977339 73 68 C73.38526855 68.6614502 73.77053711 69.32290039 74.16748047 70.00439453 C83.11117679 85.45322438 93.60823572 104.56085407 93 123 C93.23783203 124.09586426 93.23783203 124.09586426 93.48046875 125.21386719 C97.08615163 144.5503583 94.09582599 167.06224751 90 186 C89.75330566 187.14919922 89.50661133 188.29839844 89.25244141 189.48242188 C85.6871656 205.7395543 81.15580999 221.5693426 75.8828125 237.34814453 C72.62984053 247.11965491 69.67522059 256.98307646 66.8125 266.875 C66.56226074 267.73125977 66.31202148 268.58751953 66.05419922 269.46972656 C63.29854284 279.0949604 61.6304696 288.0850967 61.6875 298.125 C61.69269653 299.6267981 61.69269653 299.6267981 61.69799805 301.15893555 C61.92183024 316.59841024 65.49691905 331.02362037 72 345 C73 347.33333333 74 349.66666667 75 352 C76.03994472 354.33010169 77.08368156 356.65839478 78.1328125 358.984375 C79 361 79 361 80 364 C67.49324004 371.06737278 54.93711025 378.04518393 42.37612915 385.01560974 C38.23654553 387.31296346 34.09836584 389.61282978 29.9609375 391.9140625 C16.65969839 399.31101793 3.34437748 406.6811339 -10 414 C-12.78347478 410.59323179 -14.69948599 406.86630217 -16.625 402.9375 C-16.96547363 402.24938232 -17.30594727 401.56126465 -17.65673828 400.85229492 C-20.44284925 395.19486117 -23.16769455 389.50799522 -25.875 383.8125 C-26.2560791 383.01126709 -26.6371582 382.21003418 -27.02978516 381.38452148 C-29.98024289 375.13715576 -32.4024586 368.92165921 -34.4375 362.3125 C-34.64181641 361.65572266 -34.84613281 360.99894531 -35.05664062 360.32226562 C-35.4817758 358.95150268 -35.90362893 357.57971832 -36.32250977 356.20703125 C-36.79580748 354.66518933 -37.27886463 353.12632448 -37.76928711 351.58984375 C-48.49458517 317.34357029 -43.22724833 279.54650233 -30.91235352 246.48193359 C-29.80784685 243.4772735 -28.85289241 240.44215898 -27.9375 237.375 C-26.84285895 233.75033254 -25.72917229 230.14371008 -24.5 226.5625 C-19.19391838 210.67309253 -15.72907312 194.76868186 -15 178 C-14.94714844 177.11441406 -14.89429688 176.22882813 -14.83984375 175.31640625 C-14.64633761 169.65424841 -15.3089544 164.30461213 -16.3125 158.75 C-16.43012695 158.08830811 -16.54775391 157.42661621 -16.66894531 156.74487305 C-17.56233167 152.18711744 -19.08014281 148.21576888 -21 144 C-21.65142891 142.33551244 -22.29787676 140.66905979 -22.9375 139 C-25.18741901 133.35802753 -27.54919668 128.24849408 -32 124 C-32.66666667 122.66666667 -33.33333333 121.33333333 -34 120 C-34.53625 119.46375 -35.0725 118.9275 -35.625 118.375 C-36.07875 117.92125 -36.5325 117.4675 -37 117 C-37 116.34 -37 115.68 -37 115 C-37.99 114.67 -38.98 114.34 -40 114 C-40 113.34 -40 112.68 -40 112 C-40.66 112 -41.32 112 -42 112 C-42 111.34 -42 110.68 -42 110 C-42.598125 109.71125 -43.19625 109.4225 -43.8125 109.125 C-46 108 -46 108 -49 106 C-49 105.34 -49 104.68 -49 104 C-49.99 104 -50.98 104 -52 104 C-52 103.34 -52 102.68 -52 102 C-53.010625 101.731875 -54.02125 101.46375 -55.0625 101.1875 C-57.73089744 100.43280174 -60.05067359 99.54712345 -62.625 98.4375 C-76.03102787 92.72752517 -91.73202302 95.91046189 -104.7265625 101.0859375 C-106.84978887 102.00577173 -108.92905121 102.96885813 -111 104 C-111.67804688 104.30679688 -112.35609375 104.61359375 -113.0546875 104.9296875 C-115.11279259 106.06205857 -116.3794439 107.31513612 -118 109 C-119.79558954 110.3212089 -121.63088263 111.56648381 -123.4765625 112.81640625 C-125.15050308 113.94105943 -125.15050308 113.94105943 -126 116 C-126.66 116 -127.32 116 -128 116 C-128 116.66 -128 117.32 -128 118 C-128.66 118 -129.32 118 -130 118 C-130.28875 118.598125 -130.5775 119.19625 -130.875 119.8125 C-132 122 -132 122 -134 125 C-134.66 125 -135.32 125 -136 125 C-136.33 126.65 -136.66 128.3 -137 130 C-137.66 130 -138.32 130 -139 130 C-146.80782095 151.93625885 -146.32034133 169.62165933 -137 191 C-136.34 191.99 -135.68 192.98 -135 194 C-135.03613281 195.97949219 -135.03613281 195.97949219 -136 198 C-138.31542969 199.66894531 -138.31542969 199.66894531 -141.421875 201.328125 C-142.57768066 201.95468994 -143.73348633 202.58125488 -144.92431641 203.22680664 C-146.19949096 203.90130523 -147.47472035 204.57570015 -148.75 205.25 C-150.066353 205.95879442 -151.38193481 206.66902276 -152.69677734 207.38061523 C-155.43322135 208.86010812 -158.17290033 210.33333659 -160.91503906 211.80224609 C-166.58133465 214.84329755 -172.20754313 217.9563405 -177.83352661 221.07113647 C-179.63164597 222.06617774 -181.43075969 223.05939634 -183.23022461 224.05200195 C-201.1941429 233.96139353 -219.1385856 243.90679646 -237 254 C-239.15580764 251.299116 -240.67446544 248.74930601 -242 245.5625 C-243.01529264 243.13002806 -244.03796393 240.93950462 -245.44140625 238.703125 C-247.38066869 235.33979264 -248.6697428 231.84088898 -249.9375 228.1875 C-250.19764893 227.44121338 -250.45779785 226.69492676 -250.72583008 225.92602539 C-253.29566886 218.38809644 -255.29324046 210.77459722 -257 203 C-257.21849609 202.02812744 -257.21849609 202.02812744 -257.44140625 201.03662109 C-259.7908699 190.40318147 -260.72519044 179.87787825 -261 169 C-261.02964844 167.86046875 -261.05929687 166.7209375 -261.08984375 165.546875 C-260.45664605 140.54933114 -251.28881237 117.39948361 -239 96 C-238.48953125 95.07445312 -237.9790625 94.14890625 -237.453125 93.1953125 C-236.73382812 92.10863281 -236.73382812 92.10863281 -236 91 C-235.34 91 -234.68 91 -234 91 C-233.7525 90.28070313 -233.505 89.56140625 -233.25 88.8203125 C-231.86879113 85.70395999 -230.17636006 83.49143287 -228 80.875 C-225.86263907 78.28973622 -223.86241106 75.79361659 -222 73 C-221.34 73 -220.68 73 -220 73 C-219.7834375 72.45859375 -219.566875 71.9171875 -219.34375 71.359375 C-217.53500003 68.18354656 -215.08276201 65.79271919 -212.5 63.25 C-212.00113281 62.74339844 -211.50226562 62.23679687 -210.98828125 61.71484375 C-207.25341139 58 -207.25341139 58 -205 58 C-204.505 56.515 -204.505 56.515 -204 55 C-203.34 55 -202.68 55 -202 55 C-201.67 54.01 -201.34 53.02 -201 52 C-198.56640625 49.95703125 -198.56640625 49.95703125 -195.5625 47.8125 C-194.07943359 46.73935547 -194.07943359 46.73935547 -192.56640625 45.64453125 C-190 44 -190 44 -188 44 C-187.67 43.01 -187.34 42.02 -187 41 C-185 40.33333333 -183 39.66666667 -181 39 C-180.67 38.01 -180.34 37.02 -180 36 C-177.33916031 34.00603743 -174.38757675 32 -171 32 C-171 31.34 -171 30.68 -171 30 C-167.28544726 27.91422712 -163.5683326 25.83311501 -159.84887695 23.75610352 C-158.58646094 23.05031799 -157.32472773 22.34330961 -156.0637207 21.63500977 C-154.24092125 20.61144331 -152.41563223 19.59244184 -150.58984375 18.57421875 C-149.49534912 17.96151123 -148.40085449 17.34880371 -147.27319336 16.7175293 C-143.89492592 14.94486491 -140.5238189 13.45781761 -137 12 C-133.31230862 10.45787452 -129.71958223 8.8653366 -126.1875 7 C-122.395411 5.07467296 -118.56683325 3.86080709 -114.48046875 2.7109375 C-112.24227885 2.06944055 -110.06876646 1.33972012 -107.875 0.5625 C-99.48284836 -2.28000297 -90.6918974 -4.32339035 -82 -6 C-81.23300781 -6.165 -80.46601562 -6.33 -79.67578125 -6.5 C-78.50595703 -6.7475 -78.50595703 -6.7475 -77.3125 -7 C-76.54550781 -7.165 -75.77851562 -7.33 -74.98828125 -7.5 C-49.66880016 -11.7364622 -24.09061589 -8.43171556 0 0 Z " fill="#F31000" transform="translate(938,232)"/>
<path d="M0 0 C0.34611328 0.80920898 0.34611328 0.80920898 0.69921875 1.63476562 C3.21068487 7.407167 6.01704403 12.9589333 9 18.5 C11.47416229 23.0959439 13.89648054 27.66587972 15.96484375 32.4609375 C18.17146808 37.53473268 20.8468234 42.30934676 23.5625 47.125 C28.60134096 56.06944861 28.60134096 56.06944861 30.49609375 60.4921875 C32.50754596 65.18383447 34.99873649 69.55478368 37.5 74 C42.59585294 83.05629037 42.59585294 83.05629037 44.50390625 87.51171875 C46.86742576 93.02248357 49.91976133 98.14775235 52.88476562 103.35351562 C55.6769508 108.33655116 57.97396974 113.28826624 60.01928711 118.6184082 C61.54757399 122.32974465 63.52599488 125.73608744 65.5625 129.1875 C67.71419849 132.86227054 69.76300441 136.44335096 71.43359375 140.3671875 C73.85568377 145.98450351 76.95319666 151.21520819 79.97265625 156.52929688 C82.454454 160.96204462 84.55256907 165.2558509 86.23486328 170.04516602 C87.67520334 173.72506483 89.71706929 177.08373133 91.6875 180.5 C96.07647002 188.25232226 100.15110435 196.11148742 104.07080078 204.109375 C106.14020235 208.31994928 108.25352836 212.5087338 110.35546875 216.703125 C111.40816826 218.81352496 112.45318707 220.92778456 113.48828125 223.046875 C116.80518014 229.80583878 120.42705119 236.30142352 124.265625 242.7734375 C126 246 126 246 126.9140625 248.828125 C128.45101506 253.31735335 130.79102252 257.25591447 133.125 261.375 C137.02277028 268.34804009 140.75769141 275.36331955 144.28051758 282.5324707 C146.60912013 287.26057003 149.08123783 291.88574138 151.67578125 296.47265625 C153 299 153 299 154.328125 302.1953125 C156.69229502 307.82628034 159.86678264 313.05473579 162.88476562 318.35351562 C165.66644493 323.31780201 167.94718086 328.24613452 169.98364258 333.5559082 C172.01359077 338.43743866 174.79732943 342.9211702 177.46484375 347.47460938 C177.89152344 348.21904297 178.31820313 348.96347656 178.7578125 349.73046875 C179.1408252 350.38426514 179.52383789 351.03806152 179.91845703 351.71166992 C181.33732721 354.71371736 182.1481838 357.79710339 183 361 C182.26289795 361.40613525 181.5257959 361.81227051 180.76635742 362.23071289 C167.29229221 369.65617479 153.82325164 377.09036315 140.375 384.5625 C139.28856201 385.16457275 138.20212402 385.76664551 137.08276367 386.38696289 C131.81841458 389.30711345 126.5631887 392.24145698 121.33096313 395.21873474 C118.82748673 396.64209298 116.31985683 398.0580395 113.81182861 399.47335815 C112.61208286 400.15317366 111.41441041 400.83666234 110.21893311 401.5239563 C108.56780267 402.47295854 106.9090689 403.40869527 105.25 404.34375 C104.30640625 404.88193359 103.3628125 405.42011719 102.390625 405.97460938 C100 407 100 407 97 406 C91.14618651 398.94876825 87.08515022 390.164489 82.6796875 382.17578125 C82.133125 381.19480469 81.5865625 380.21382812 81.0234375 379.203125 C80.53794434 378.32301758 80.05245117 377.44291016 79.55224609 376.53613281 C78.03129425 373.9318708 78.03129425 373.9318708 75.99951172 371.50170898 C74.0130633 369.01634428 72.50675406 366.5589472 70.984375 363.76953125 C70.45585938 362.80208984 69.92734375 361.83464844 69.3828125 360.83789062 C68.84398437 359.83951172 68.30515625 358.84113281 67.75 357.8125 C67.19570313 356.80251953 66.64140625 355.79253906 66.0703125 354.75195312 C62 347.25796644 62 347.25796644 62 345 C61.01 344.67 60.02 344.34 59 344 C57.55786133 341.89868164 57.55786133 341.89868164 56.08203125 339.16015625 C55.55029297 338.17982422 55.01855469 337.19949219 54.47070312 336.18945312 C53.92349609 335.15755859 53.37628906 334.12566406 52.8125 333.0625 C51.97428711 331.52045898 51.97428711 331.52045898 51.11914062 329.94726562 C47 322.28737408 47 322.28737408 47 320 C46.01 319.67 45.02 319.34 44 319 C42.51367188 316.73095703 42.51367188 316.73095703 40.96875 313.7578125 C40.12376953 312.15873047 40.12376953 312.15873047 39.26171875 310.52734375 C38.68035156 309.40457031 38.09898437 308.28179688 37.5 307.125 C36.34863053 304.91671932 35.19257443 302.71087418 34.03125 300.5078125 C33.52142578 299.52441895 33.01160156 298.54102539 32.48632812 297.52783203 C31.13760823 295.23403345 29.86972241 293.83885074 28 292 C26.97763779 290.35915463 26.00723457 288.68543275 25.07421875 286.9921875 C24.52443359 286.00476563 23.97464844 285.01734375 23.40820312 284 C22.84037109 282.96875 22.27253906 281.9375 21.6875 280.875 C18.14323018 274.451781 14.54242732 268.17990308 10.40844727 262.1171875 C8.13487933 258.69954473 6.12534233 255.1447457 4.125 251.5625 C3.7228125 250.85673828 3.320625 250.15097656 2.90625 249.42382812 C0 244.24892379 0 244.24892379 0 242 C-0.66 242 -1.32 242 -2 242 C-2.39268066 241.28980713 -2.78536133 240.57961426 -3.18994141 239.84790039 C-4.99764978 236.5838792 -6.81127892 233.32318366 -8.625 230.0625 C-9.24246094 228.94552734 -9.85992188 227.82855469 -10.49609375 226.67773438 C-13.66871114 220.98372106 -16.9380767 215.4565651 -20.61572266 210.07543945 C-22.88437802 206.67405687 -24.88262023 203.13048623 -26.875 199.5625 C-27.2771875 198.85673828 -27.679375 198.15097656 -28.09375 197.42382812 C-31 192.24892379 -31 192.24892379 -31 190 C-31.66 190 -32.32 190 -33 190 C-33.4031543 189.26885986 -33.80630859 188.53771973 -34.22167969 187.78442383 C-35.73127545 185.05202081 -37.2450866 182.32200867 -38.76171875 179.59350586 C-39.7350068 177.83951961 -40.70347985 176.08286429 -41.671875 174.32617188 C-42.290625 173.21435547 -42.909375 172.10253906 -43.546875 170.95703125 C-44.11245117 169.93585205 -44.67802734 168.91467285 -45.26074219 167.86254883 C-46.98231696 165.02910354 -48.92053771 162.57652219 -51 160 C-51.97152346 158.42589219 -52.9047243 156.82744489 -53.796875 155.20703125 C-54.28027344 154.32982422 -54.76367188 153.45261719 -55.26171875 152.54882812 C-55.99841797 151.1943457 -55.99841797 151.1943457 -56.75 149.8125 C-57.25660156 148.89791016 -57.76320313 147.98332031 -58.28515625 147.04101562 C-62 140.25717023 -62 140.25717023 -62 138 C-62.99 137.67 -63.98 137.34 -65 137 C-66.47045898 134.76269531 -66.47045898 134.76269531 -67.99609375 131.828125 C-68.55490234 130.77109375 -69.11371094 129.7140625 -69.68945312 128.625 C-70.26630859 127.51125 -70.84316406 126.3975 -71.4375 125.25 C-72.57731763 123.0652427 -73.7217055 120.88286245 -74.87109375 118.703125 C-75.62797485 117.24374512 -75.62797485 117.24374512 -76.40014648 115.75488281 C-78.04446525 112.92343264 -79.94176332 110.54061607 -82 108 C-82.97152346 106.42589219 -83.9047243 104.82744489 -84.796875 103.20703125 C-85.28027344 102.32982422 -85.76367188 101.45261719 -86.26171875 100.54882812 C-86.75285156 99.64583984 -87.24398438 98.74285156 -87.75 97.8125 C-88.25660156 96.89791016 -88.76320313 95.98332031 -89.28515625 95.04101562 C-93 88.25717023 -93 88.25717023 -93 86 C-93.99 85.67 -94.98 85.34 -96 85 C-98.57095189 81.23591259 -100.60451527 77.14374666 -102.75 73.125 C-103.67232422 71.45244141 -103.67232422 71.45244141 -104.61328125 69.74609375 C-105.18949219 68.67746094 -105.76570313 67.60882813 -106.359375 66.5078125 C-106.89014648 65.52441895 -107.42091797 64.54102539 -107.96777344 63.52783203 C-109 61 -109 61 -108 58 C-105.68457031 56.44458008 -105.68457031 56.44458008 -102.578125 54.76953125 C-101.42231934 54.13974365 -100.26651367 53.50995605 -99.07568359 52.86108398 C-97.80049257 52.17815385 -96.52526365 51.49529449 -95.25 50.8125 C-93.9338649 50.09873735 -92.61828017 49.38395898 -91.30322266 48.66821289 C-88.56593916 47.1794462 -85.82632278 45.69510992 -83.08496094 44.21386719 C-77.42705658 41.15274871 -71.79703951 38.04141261 -66.16757202 34.92840576 C-64.36595568 33.93250044 -62.56358767 32.93796886 -60.76098633 31.94384766 C-53.62616363 28.0084454 -46.49875691 24.05988703 -39.37744141 20.10009766 C-36.02200093 18.23448227 -32.66532415 16.37110567 -29.30859375 14.5078125 C-25.19078459 12.22119062 -21.07946494 9.92350084 -16.97265625 7.6171875 C-15.14850101 6.59884457 -13.32428597 5.58060872 -11.5 4.5625 C-10.67491943 4.09545654 -9.84983887 3.62841309 -8.99975586 3.1472168 C-8.24702393 2.72867432 -7.49429199 2.31013184 -6.71875 1.87890625 C-5.74325195 1.33085327 -5.74325195 1.33085327 -4.74804688 0.77172852 C-3 0 -3 0 0 0 Z " fill="#F31000" transform="translate(572,381)"/>
<path d="M0 0 C0 0.66 0 1.32 0 2 C0.598125 2.28875 1.19625 2.5775 1.8125 2.875 C4 4 4 4 7 6 C7 6.66 7 7.32 7 8 C8.485 8.495 8.485 8.495 10 9 C12.62080619 12.47784707 14.76586061 16.26495199 17 20 C17.48210937 20.76183594 17.96421875 21.52367187 18.4609375 22.30859375 C25.81434191 34.45285255 27.76530016 50.44719044 24.47265625 64.203125 C21.769598 73.09602671 17.62522204 82.37477796 11 89 C10.34 89 9.68 89 9 89 C8.505 90.485 8.505 90.485 8 92 C7.34 92 6.68 92 6 92 C5.505 93.485 5.505 93.485 5 95 C4.34 95 3.68 95 3 95 C3 95.66 3 96.32 3 97 C2.360625 97.103125 1.72125 97.20625 1.0625 97.3125 C0.381875 97.539375 -0.29875 97.76625 -1 98 C-1.495 99.485 -1.495 99.485 -2 101 C-15.77162459 111.88520949 -35.01548295 117.08659299 -52.375 115.8125 C-62.48439903 114.34471067 -72.92731877 111.51022679 -81 105 C-81 104.34 -81 103.68 -81 103 C-81.556875 102.773125 -82.11375 102.54625 -82.6875 102.3125 C-86.97109708 99.88126923 -90.31264396 96.10175395 -93 92 C-93 91.34 -93 90.68 -93 90 C-93.66 90 -94.32 90 -95 90 C-99.33917002 81.47601779 -103.29331084 73.4672946 -105 64 C-105.13664062 63.32453125 -105.27328125 62.6490625 -105.4140625 61.953125 C-107.71106672 47.74375007 -103.00483076 32.73460204 -95 21 C-94.34 21 -93.68 21 -93 21 C-92.7525 20.443125 -92.505 19.88625 -92.25 19.3125 C-89.66917098 14.5379663 -86.34835238 11.18879174 -82 8 C-81.41992188 7.57074219 -80.83984375 7.14148438 -80.2421875 6.69921875 C-55.34973199 -10.85800748 -26.94265703 -16.804152 0 0 Z " fill="#F31000" transform="translate(525,978)"/>
<path d="M0 0 C0 0.66 0 1.32 0 2 C0.721875 2.2475 1.44375 2.495 2.1875 2.75 C7.31192812 5.02752361 10.77253356 8.45763983 14 13 C14 13.66 14 14.32 14 15 C14.66 15 15.32 15 16 15 C25.67769774 30.03331689 30.34765176 45.11949964 27.4921875 63.21875 C25.92014622 70.22969271 23.19507769 76.5845871 20 83 C19.34 83 18.68 83 18 83 C17.71125 83.763125 17.4225 84.52625 17.125 85.3125 C16 88 16 88 14 91 C13.34 91 12.68 91 12 91 C12 91.66 12 92.32 12 93 C10.3203125 94.7265625 10.3203125 94.7265625 8.125 96.625 C7.40570312 97.25664063 6.68640625 97.88828125 5.9453125 98.5390625 C4 100 4 100 2 100 C2 100.66 2 101.32 2 102 C-0.82804012 103.61363045 -3.66333102 105.21409483 -6.5 106.8125 C-7.29148437 107.26431641 -8.08296875 107.71613281 -8.8984375 108.18164062 C-25.33335532 117.40944285 -43.37604743 120.42114569 -61.75 115.3125 C-67.57680951 113.36069755 -73.15143766 110.8306926 -78 107 C-78 106.34 -78 105.68 -78 105 C-78.598125 104.71125 -79.19625 104.4225 -79.8125 104.125 C-82 103 -82 103 -85 101 C-85 100.34 -85 99.68 -85 99 C-85.66 99 -86.32 99 -87 99 C-87.66 97.35 -88.32 95.7 -89 94 C-89.66 94 -90.32 94 -91 94 C-100.47578503 75.65614062 -106.1537103 60.54440928 -100.2109375 39.73828125 C-98.62494413 34.84216623 -96.55324985 30.4553353 -94 26 C-93.443125 24.96875 -92.88625 23.9375 -92.3125 22.875 C-91.879375 22.25625 -91.44625 21.6375 -91 21 C-90.34 21 -89.68 21 -89 21 C-88.731875 20.360625 -88.46375 19.72125 -88.1875 19.0625 C-87 17 -87 17 -84 16 C-83.67 15.01 -83.34 14.02 -83 13 C-82.34 13 -81.68 13 -81 13 C-81 12.34 -81 11.68 -81 11 C-79.35 10.34 -77.7 9.68 -76 9 C-76 8.34 -76 7.68 -76 7 C-51.69889244 -7.63750923 -26.38902076 -15.07093059 0 0 Z " fill="#F31000" transform="translate(1071,672)"/>
<path d="M0 0 C0.33902344 0.67933594 0.67804688 1.35867188 1.02734375 2.05859375 C2.27328431 4.54547108 3.52760082 4.84370685 6 6 C17.18200001 17.41617802 22.25770124 34.21406157 22.2487793 49.75073242 C22.07953651 60.44224978 18.73108383 69.50043247 14 79 C13.34 79 12.68 79 12 79 C11.71125 79.763125 11.4225 80.52625 11.125 81.3125 C10 84 10 84 8 87 C7.34 87 6.68 87 6 87 C6 87.66 6 88.32 6 89 C3.8828125 90.9453125 3.8828125 90.9453125 1.125 93.125 C-0.23238281 94.21167969 -0.23238281 94.21167969 -1.6171875 95.3203125 C-4 97 -4 97 -6 97 C-6 97.66 -6 98.32 -6 99 C-14.76474475 104.41390531 -22.9444697 108.40061121 -33 111 C-33.66902344 111.22429687 -34.33804688 111.44859375 -35.02734375 111.6796875 C-47.04182007 115.51801035 -62.77817751 113.61334316 -73.8515625 108.07373047 C-77.71903395 105.93530676 -81.38355121 103.54142938 -85 101 C-85.77988281 100.46503906 -86.55976562 99.93007813 -87.36328125 99.37890625 C-87.90339844 98.92386719 -88.44351563 98.46882812 -89 98 C-89 97.34 -89 96.68 -89 96 C-89.66 96 -90.32 96 -91 96 C-93.52694031 93.15719215 -95.31154762 90.37690476 -97 87 C-97.45117188 86.60296875 -97.90234375 86.2059375 -98.3671875 85.796875 C-107.06703027 76.22288535 -108.62478424 60.72562973 -108.3203125 48.43359375 C-107.81576089 38.73051512 -104.80937053 29.41639843 -100 21 C-99.34 21 -98.68 21 -98 21 C-97.71125 20.236875 -97.4225 19.47375 -97.125 18.6875 C-96 16 -96 16 -94 13 C-93.34 13 -92.68 13 -92 13 C-91.67 12.01 -91.34 11.02 -91 10 C-90.34 10 -89.68 10 -89 10 C-89 9.34 -89 8.68 -89 8 C-88.360625 7.896875 -87.72125 7.79375 -87.0625 7.6875 C-86.381875 7.460625 -85.70125 7.23375 -85 7 C-84.67 6.01 -84.34 5.02 -84 4 C-82 3.33333333 -80 2.66666667 -78 2 C-77.67 1.01 -77.34 0.02 -77 -1 C-54.72629917 -18.13361602 -21.747688 -16.64059884 0 0 Z " fill="#F31000" transform="translate(816,823)"/>
</svg>
